<svg width="40" height="40" viewBox="0 0 40 40" fill="none" xmlns="http://www.w3.org/2000/svg">
<circle cx="20" cy="20" r="20" fill="#01D957"/>
<path d="M18.2351 21.7595C19.1545 22.712 20.267 23.4473 21.4945 23.9139L23.155 22.5646C23.2042 22.53 23.2626 22.5114 23.3224 22.5114C23.3822 22.5114 23.4405 22.53 23.4898 22.5646L26.573 24.5931C26.69 24.665 26.7891 24.7636 26.8624 24.8813C26.9357 24.999 26.9812 25.1325 26.9953 25.2712C27.0094 25.4099 26.9917 25.5501 26.9436 25.6806C26.8956 25.8112 26.8184 25.9285 26.7183 26.0234L25.2736 27.4807C25.0667 27.6894 24.8124 27.8426 24.5335 27.9266C24.2545 28.0106 23.9595 28.0227 23.6748 27.9619C20.8348 27.363 18.2171 25.9602 16.1209 23.9139C14.0712 21.8473 12.6528 19.2177 12.0378 16.3442C11.977 16.058 11.9897 15.7606 12.0746 15.4808C12.1595 15.2011 12.3137 14.9485 12.5223 14.7475L14.0199 13.2722C14.1125 13.175 14.2255 13.1004 14.3504 13.054C14.4753 13.0077 14.6089 12.9908 14.7411 13.0047C14.8733 13.0185 15.0007 13.0627 15.1138 13.134C15.2268 13.2052 15.3227 13.3017 15.3941 13.4161L17.4466 16.5241C17.482 16.5729 17.5012 16.632 17.5012 16.6928C17.5012 16.7535 17.482 16.8126 17.4466 16.8614L16.0944 18.5211C16.5638 19.7494 17.295 20.8556 18.2351 21.7595Z" fill="white"/>
</svg>
