<svg width="242" height="228" viewBox="0 0 242 228" fill="none" xmlns="http://www.w3.org/2000/svg">
<path d="M160.935 17.0766C150.374 23.1117 142.925 33.2621 133.899 41.4104C122.671 51.5055 109.007 58.5053 94.2493 61.7208C82.1493 64.3369 69.5073 64.3756 57.8477 68.4909C35.0997 76.4651 19.5197 100.132 19.1277 124.195C18.7357 148.258 32.4377 171.585 52.5769 184.778C59.4358 189.273 66.9446 192.689 74.841 194.909C89.6514 199.072 105.357 198.888 120.661 197.297C147.097 194.546 174.811 179.545 191.475 158.398C198.903 148.947 205.181 138.647 210.177 127.715C218.43 109.74 223.118 90.3372 223.981 70.58C224.683 53.6547 223.981 34.8917 210.54 22.5556C197.099 10.2195 176.689 8.06752 160.935 17.0766Z" fill="#F9F9F9" fill-opacity="0.02"/>
<path d="M177.678 209.761C196.764 209.761 212.235 205.597 212.235 200.461C212.235 195.326 196.764 191.162 177.678 191.162C158.593 191.162 143.122 195.326 143.122 200.461C143.122 205.597 158.593 209.761 177.678 209.761Z" fill="#ECECEC"/>
<path d="M143.729 19.2383H41.687C39.2946 19.2383 37.3552 21.176 37.3552 23.5663V80.7207C37.3552 83.111 39.2946 85.0487 41.687 85.0487H143.729C146.121 85.0487 148.061 83.111 148.061 80.7207V23.5663C148.061 21.176 146.121 19.2383 143.729 19.2383Z" fill="white"/>
<path d="M148.061 23.5663V25.2782H37.3552V23.5663C37.3552 22.4162 37.8108 21.3129 38.6225 20.4974C39.4342 19.6819 40.5359 19.2205 41.687 19.2141H143.748C144.318 19.216 144.881 19.3302 145.406 19.5501C145.931 19.77 146.408 20.0914 146.809 20.4957C147.209 20.9001 147.526 21.3794 147.741 21.9064C147.956 22.4333 148.064 22.9974 148.061 23.5663Z" fill="#92E3A9"/>
<path d="M143.729 19.2383H41.687C39.2946 19.2383 37.3552 21.176 37.3552 23.5663V80.7207C37.3552 83.111 39.2946 85.0487 41.687 85.0487H143.729C146.121 85.0487 148.061 83.111 148.061 80.7207V23.5663C148.061 21.176 146.121 19.2383 143.729 19.2383Z" stroke="#263238" stroke-width="1.52" stroke-linecap="round" stroke-linejoin="round"/>
<path d="M148.061 23.5663V25.2782H37.3552V23.5663C37.3552 22.4162 37.8108 21.3129 38.6225 20.4974C39.4342 19.6819 40.5359 19.2205 41.687 19.2141H143.748C144.318 19.216 144.881 19.3302 145.406 19.5501C145.931 19.77 146.408 20.0914 146.809 20.4957C147.209 20.9001 147.526 21.3794 147.741 21.9064C147.956 22.4333 148.064 22.9974 148.061 23.5663V23.5663Z" stroke="#263238" stroke-width="1.52" stroke-linecap="round" stroke-linejoin="round"/>
<path d="M49.789 22.2558C49.79 22.475 49.7258 22.6896 49.6046 22.8724C49.4834 23.0551 49.3106 23.1978 49.1082 23.2824C48.9057 23.3669 48.6827 23.3895 48.4674 23.3474C48.2521 23.3052 48.0541 23.2001 47.8986 23.0454C47.7432 22.8907 47.6371 22.6934 47.594 22.4785C47.5508 22.2635 47.5725 22.0406 47.6562 21.838C47.7399 21.6354 47.882 21.4621 48.0644 21.3402C48.2467 21.2183 48.4612 21.1533 48.6806 21.1533C48.9738 21.1533 49.255 21.2693 49.4627 21.4759C49.6704 21.6825 49.7877 21.963 49.789 22.2558Z" fill="#263238"/>
<path d="M55.573 22.2558C55.574 22.475 55.5098 22.6896 55.3886 22.8724C55.2674 23.0551 55.0946 23.1978 54.8922 23.2824C54.6897 23.3669 54.4667 23.3895 54.2514 23.3474C54.0361 23.3052 53.8381 23.2001 53.6826 23.0454C53.5271 22.8907 53.4211 22.6934 53.3779 22.4785C53.3348 22.2635 53.3565 22.0406 53.4402 21.838C53.5239 21.6354 53.666 21.4621 53.8484 21.3402C54.0307 21.2183 54.2452 21.1533 54.4646 21.1533C54.7578 21.1533 55.0389 21.2693 55.2467 21.4759C55.4544 21.6825 55.5717 21.963 55.573 22.2558Z" fill="#263238"/>
<path d="M60.2482 23.3632C60.8603 23.3632 61.3565 22.8674 61.3565 22.2558C61.3565 21.6442 60.8603 21.1484 60.2482 21.1484C59.636 21.1484 59.1398 21.6442 59.1398 22.2558C59.1398 22.8674 59.636 23.3632 60.2482 23.3632Z" fill="#263238"/>
<path d="M77.0045 30.0705H45.7042C44.7178 30.0705 43.9182 30.8694 43.9182 31.8549V46.8991C43.9182 47.8846 44.7178 48.6835 45.7042 48.6835H77.0045C77.9908 48.6835 78.7904 47.8846 78.7904 46.8991V31.8549C78.7904 30.8694 77.9908 30.0705 77.0045 30.0705Z" stroke="#263238" stroke-width="1.52" stroke-linecap="round" stroke-linejoin="round"/>
<path d="M45.9704 46.343H76.2059" stroke="#263238" stroke-width="1.52" stroke-linecap="round" stroke-linejoin="round"/>
<path d="M51.7252 42.7886H48.2162V46.2946H51.7252V42.7886Z" fill="#92E3A9" stroke="#263238" stroke-width="1.52" stroke-miterlimit="10"/>
<path d="M56.8604 38.1801H53.3514V46.343H56.8604V38.1801Z" fill="#92E3A9" stroke="#263238" stroke-width="1.52" stroke-miterlimit="10"/>
<path d="M62.6442 39.5825H59.1352V46.4252H62.6442V39.5825Z" fill="#92E3A9" stroke="#263238" stroke-width="1.52" stroke-miterlimit="10"/>
<path d="M68.7233 32.7689H65.2143V46.1882H68.7233V32.7689Z" fill="#92E3A9" stroke="#263238" stroke-width="1.52" stroke-miterlimit="10"/>
<path d="M74.7973 32.8752H71.2883V46.2946H74.7973V32.8752Z" fill="#92E3A9" stroke="#263238" stroke-width="1.52" stroke-miterlimit="10"/>
<path d="M122.026 49.6458C127.444 49.6458 131.837 45.2572 131.837 39.8436C131.837 34.43 127.444 30.0414 122.026 30.0414C116.608 30.0414 112.215 34.43 112.215 39.8436C112.215 45.2572 116.608 49.6458 122.026 49.6458Z" fill="#92E3A9" stroke="#263238" stroke-width="1.52" stroke-miterlimit="10"/>
<path d="M122.83 45.9561V46.962H121.184V45.9561C120.508 45.7928 119.911 45.3993 119.494 44.8433C119.077 44.2873 118.867 43.6035 118.9 42.9096V42.455L120.763 42.2519V42.7355C120.763 43.6688 121.247 44.2346 122.007 44.2346C122.172 44.2482 122.338 44.2261 122.493 44.1696C122.649 44.1132 122.79 44.0238 122.908 43.9076C123.026 43.7913 123.117 43.651 123.175 43.4963C123.234 43.3416 123.258 43.176 123.246 43.0111C123.246 42.1165 122.409 41.3476 121.421 40.5303C120.25 39.5632 119.084 38.4122 119.084 36.7874C119.084 35.1626 119.848 34.0649 121.184 33.736V32.7253H122.83V33.7264C124.18 34.0407 124.964 35.1771 124.964 36.7971V37.1259L123.101 37.3242V36.9857C123.101 36.0185 122.718 35.4866 122.041 35.4866C121.363 35.4866 120.981 35.9073 120.981 36.71C120.981 37.6047 121.842 38.3542 122.81 39.1908C123.962 40.158 125.148 41.3089 125.148 42.9337C125.177 43.6289 124.96 44.312 124.537 44.8643C124.113 45.4165 123.509 45.8028 122.83 45.9561Z" fill="#263238"/>
<path d="M43.105 58.1907H45.9703" stroke="#263238" stroke-width="1.52" stroke-linecap="round" stroke-linejoin="round"/>
<path d="M43.105 63.7228H45.9703" stroke="#263238" stroke-width="1.52" stroke-linecap="round" stroke-linejoin="round"/>
<path d="M43.105 69.2598H45.9703" stroke="#263238" stroke-width="1.52" stroke-linecap="round" stroke-linejoin="round"/>
<path d="M43.105 74.792H45.9703" stroke="#263238" stroke-width="1.52" stroke-linecap="round" stroke-linejoin="round"/>
<path d="M52.2868 78.9701V76.7457" stroke="#263238" stroke-width="1.52" stroke-linecap="round" stroke-linejoin="round"/>
<path d="M56.8266 78.9701V76.7457" stroke="#263238" stroke-width="1.52" stroke-linecap="round" stroke-linejoin="round"/>
<path d="M61.3664 78.9701V76.7457" stroke="#263238" stroke-width="1.52" stroke-linecap="round" stroke-linejoin="round"/>
<path d="M65.9113 78.9701V76.7457" stroke="#263238" stroke-width="1.52" stroke-linecap="round" stroke-linejoin="round"/>
<path d="M70.4511 78.9701V76.7457" stroke="#263238" stroke-width="1.52" stroke-linecap="round" stroke-linejoin="round"/>
<path d="M74.991 78.9701V76.7457" stroke="#263238" stroke-width="1.52" stroke-linecap="round" stroke-linejoin="round"/>
<path d="M79.5311 78.9701V76.7457" stroke="#263238" stroke-width="1.52" stroke-linecap="round" stroke-linejoin="round"/>
<path d="M84.0757 78.9701V76.7457" stroke="#263238" stroke-width="1.52" stroke-linecap="round" stroke-linejoin="round"/>
<path d="M88.6158 78.9701V76.7457" stroke="#263238" stroke-width="1.52" stroke-linecap="round" stroke-linejoin="round"/>
<path d="M93.1557 78.9701V76.7457" stroke="#263238" stroke-width="1.52" stroke-linecap="round" stroke-linejoin="round"/>
<path d="M97.6955 78.9701V76.7457" stroke="#263238" stroke-width="1.52" stroke-linecap="round" stroke-linejoin="round"/>
<path d="M102.24 78.9701V76.7457" stroke="#263238" stroke-width="1.52" stroke-linecap="round" stroke-linejoin="round"/>
<path d="M106.78 78.9701V76.7457" stroke="#263238" stroke-width="1.52" stroke-linecap="round" stroke-linejoin="round"/>
<path d="M111.32 78.9701V76.7457" stroke="#263238" stroke-width="1.52" stroke-linecap="round" stroke-linejoin="round"/>
<path d="M115.86 78.9701V76.7457" stroke="#263238" stroke-width="1.52" stroke-linecap="round" stroke-linejoin="round"/>
<path d="M120.23 78.9701V76.7457" stroke="#263238" stroke-width="1.52" stroke-linecap="round" stroke-linejoin="round"/>
<path d="M124.601 78.9701V76.7457" stroke="#263238" stroke-width="1.52" stroke-linecap="round" stroke-linejoin="round"/>
<path d="M128.967 78.9701V76.7457" stroke="#263238" stroke-width="1.52" stroke-linecap="round" stroke-linejoin="round"/>
<path d="M140.525 54.8056V76.3056C140.525 77.7805 139.024 78.9701 137.175 78.9701H46.464C45.9117 78.9897 45.3623 78.8816 44.8586 78.6543C44.3549 78.427 43.9105 78.0866 43.56 77.6596C43.2572 77.272 43.0875 76.7972 43.076 76.3056V54.8056C43.076 53.3548 44.5764 52.1411 46.4253 52.1411H137.175C139.024 52.1411 140.525 53.3307 140.525 54.8056Z" stroke="#92E3A9" stroke-width="1.52" stroke-linecap="round" stroke-linejoin="round"/>
<path d="M112.917 13.1645L83.9594 52.1411L72.8855 67.0451L60.7855 59.3465L45.9799 78.9702H45.767C45.3028 78.9705 44.8465 78.8498 44.4433 78.62C44.0401 78.3901 43.7039 78.0591 43.468 77.6597L60.1031 55.6035L72.2031 63.2876L80.4843 52.1653L110.681 11.5445L112.917 13.1645Z" fill="#219653"/>
<path d="M105.57 13.6577L116.213 7.21161L113.271 18.363L111.393 13.2032L105.57 13.6577Z" fill="#219653"/>
<path d="M206.295 136.371H36.0773L16.998 153.321" stroke="#27AE60" stroke-width="2.10526" stroke-linecap="round" stroke-linejoin="round"/>
<path d="M36.1839 124.504V91.548" stroke="#27AE60" stroke-width="2.10526" stroke-linecap="round" stroke-linejoin="round"/>
<path d="M36.1839 134.456V128.083" stroke="#27AE60" stroke-width="2.10526" stroke-linecap="round" stroke-linejoin="round"/>
<path d="M196.049 56.1934C196.049 56.1934 196.049 54.2011 193.256 51.4157C190.463 48.6302 188.672 47.0344 188.672 47.0344C188.672 47.0344 187.274 51.6139 189.868 54.4042C191.773 56.3697 193.841 58.1718 196.049 59.7913V56.1934Z" fill="#92E3A9"/>
<path d="M191.997 68.636C191.997 68.636 191.997 66.6436 189.205 63.8533C186.412 61.0631 184.621 59.4721 184.621 59.4721C184.621 59.4721 183.227 64.0516 185.817 66.8419C187.725 68.8064 189.792 70.6099 191.997 72.2338V68.636Z" fill="#92E3A9"/>
<path d="M195.869 59.5882C195.869 59.5882 196.082 57.6055 199.151 55.1248C202.22 52.644 204.175 51.2561 204.175 51.2561C204.175 51.2561 205.075 55.971 202.205 58.4566C200.102 60.2059 197.857 61.7765 195.492 63.1522L195.869 59.5882Z" fill="#92E3A9"/>
<path d="M190.976 74.2794C190.976 74.2794 191.397 72.3451 194.708 70.1883C198.018 68.0315 200.104 66.8613 200.104 66.8613C200.104 66.8613 200.506 71.6342 197.404 73.82C195.13 75.3386 192.732 76.6634 190.236 77.7805L190.976 74.2794Z" fill="#92E3A9"/>
<path d="M191.901 90.2907C191.901 90.2907 191.901 88.2984 194.688 85.513C197.476 82.7275 199.272 81.1317 199.272 81.1317C199.272 81.1317 200.671 85.7161 198.076 88.5015C196.174 90.4698 194.108 92.2735 191.901 93.8934V90.2907Z" fill="#92E3A9"/>
<path d="M191.852 94.2029C191.852 94.2029 192.133 92.2299 189.766 89.0769C187.399 85.924 185.855 84.0864 185.855 84.0864C185.855 84.0864 183.832 88.4386 185.996 91.5529C187.604 93.7648 189.395 95.8385 191.349 97.7524L191.852 94.2029Z" fill="#92E3A9"/>
<path d="M189.098 105.785C189.098 105.785 189.098 103.797 191.891 101.007C194.684 98.2166 196.475 96.6547 196.475 96.6547C196.475 96.6547 197.873 101.234 195.279 104.02C193.374 105.987 191.306 107.79 189.098 109.412V105.785Z" fill="#92E3A9"/>
<path d="M190.962 116.293C190.962 116.293 190.478 114.359 192.457 110.973C194.437 107.588 195.782 105.582 195.782 105.582C195.782 105.582 198.289 109.663 196.494 113.014C195.147 115.396 193.602 117.661 191.876 119.784L190.962 116.293Z" fill="#92E3A9"/>
<path d="M196.3 55.7002C196.159 57.7727 195.904 59.8359 195.535 61.8804C194.432 67.5769 191.663 71.2521 190.57 76.3878C189.476 81.5234 192.636 88.163 191.789 94.7638C190.942 101.365 188.363 105.045 189.089 109.455C189.815 113.865 193.687 125.8 193.687 125.8" stroke="#263238" stroke-width="1.78978" stroke-linecap="round" stroke-linejoin="round"/>
<path d="M195.845 60.9132L198.851 58.6017" stroke="#263238" stroke-width="1.78978" stroke-linecap="round" stroke-linejoin="round"/>
<path d="M195.981 58.2583L194.727 56.0193" stroke="#263238" stroke-width="1.78978" stroke-linecap="round" stroke-linejoin="round"/>
<path d="M190.739 76.1557C190.739 76.1557 193.256 74.2649 195.845 72.3789" stroke="#263238" stroke-width="1.78978" stroke-linecap="round" stroke-linejoin="round"/>
<path d="M191.997 72.2096C191.997 72.2096 189.897 68.0992 187.52 65.3718" stroke="#263238" stroke-width="1.78978" stroke-linecap="round" stroke-linejoin="round"/>
<path d="M191.998 93.1245C193.44 90.4784 195.257 88.0547 197.394 85.9288" stroke="#263238" stroke-width="1.78978" stroke-linecap="round" stroke-linejoin="round"/>
<path d="M191.509 95.9196C190.737 94.1204 189.817 92.3881 188.759 90.7404C187.307 88.574 187.075 88.2935 187.075 88.2935" stroke="#263238" stroke-width="1.78978" stroke-linecap="round" stroke-linejoin="round"/>
<path d="M189.098 109.45C189.738 107.867 190.496 106.334 191.368 104.866C192.239 103.499 193.22 102.205 194.301 100.997" stroke="#263238" stroke-width="1.78978" stroke-linecap="round" stroke-linejoin="round"/>
<path d="M191.871 119.76C191.725 118.249 191.986 116.727 192.626 115.35C193.677 113.324 194.863 110.664 195.356 109.619" stroke="#263238" stroke-width="1.78978" stroke-linecap="round" stroke-linejoin="round"/>
<path d="M177.773 82.8001C177.773 82.8001 177.555 81.5572 179.002 79.502C180.449 77.4468 181.422 76.2524 181.422 76.2524C181.422 76.2524 182.792 78.9701 181.471 81.0011C180.489 82.4385 179.388 83.7909 178.179 85.0439L177.773 82.8001Z" fill="#92E3A9"/>
<path d="M181.664 90.1795C181.664 90.1795 181.446 88.927 182.894 86.8766C184.341 84.8263 185.314 83.6318 185.314 83.6318C185.314 83.6318 186.683 86.3544 185.362 88.3806C184.382 89.8189 183.28 91.1713 182.071 92.4233L181.664 90.1795Z" fill="#92E3A9"/>
<path d="M178.252 84.9085C178.252 84.9085 177.913 83.6899 175.711 82.4906C173.509 81.2913 172.139 80.6046 172.139 80.6046C172.139 80.6046 172.086 83.6367 174.162 84.9085C175.67 85.7776 177.249 86.5185 178.881 87.1233L178.252 84.9085Z" fill="#92E3A9"/>
<path d="M182.918 93.5887C182.918 93.5887 182.434 92.4136 180.13 91.432C177.826 90.4503 176.379 89.9329 176.379 89.9329C176.379 89.9329 176.645 92.9649 178.838 93.9998C180.429 94.7051 182.077 95.2761 183.765 95.7068L182.918 93.5887Z" fill="#92E3A9"/>
<path d="M184.079 103.72C184.079 103.72 183.861 102.472 181.809 101.026C179.757 99.5803 178.455 98.7728 178.455 98.7728C178.455 98.7728 178.078 101.805 180.009 103.265C181.416 104.287 182.907 105.188 184.466 105.959L184.079 103.72Z" fill="#92E3A9"/>
<path d="M184.529 106.181C184.529 106.181 184.137 104.977 185.28 102.743C186.422 100.509 187.216 99.1886 187.216 99.1886C187.216 99.1886 188.958 101.684 187.942 103.884C187.166 105.446 186.263 106.94 185.241 108.352L184.529 106.181Z" fill="#92E3A9"/>
<path d="M188.033 116.254C188.033 116.254 188.179 114.997 190.144 113.435C192.109 111.873 193.362 111.017 193.362 111.017C193.362 111.017 193.914 114.015 192.07 115.592C190.723 116.692 189.287 117.679 187.777 118.541L188.033 116.254Z" fill="#92E3A9"/>
<path d="M187.516 113.15C187.516 113.15 187.298 111.897 185.246 110.451C183.194 109.005 181.897 108.203 181.897 108.203C181.897 108.203 181.519 111.235 183.445 112.695C184.855 113.716 186.348 114.617 187.908 115.389L187.516 113.15Z" fill="#92E3A9"/>
<path d="M187.487 119.939C187.487 119.939 187.598 118.672 185.976 116.757C184.355 114.842 183.305 113.725 183.305 113.725C183.305 113.725 182.172 116.554 183.668 118.464C184.772 119.811 185.987 121.065 187.298 122.212L187.487 119.939Z" fill="#92E3A9"/>
<path d="M177.555 82.5099C177.87 83.7957 178.256 85.063 178.712 86.306C180.019 89.7539 182.148 91.7608 183.397 94.8654C184.646 97.97 183.397 102.472 184.631 106.52C185.865 110.567 187.898 112.584 187.913 115.442C187.927 118.3 186.824 126.197 186.824 126.197" stroke="#263238" stroke-width="1.78978" stroke-linecap="round" stroke-linejoin="round"/>
<path d="M178.412 85.7354L176.277 84.6183" stroke="#263238" stroke-width="1.78978" stroke-linecap="round" stroke-linejoin="round"/>
<path d="M178.034 84.0864L178.581 82.5486" stroke="#263238" stroke-width="1.78978" stroke-linecap="round" stroke-linejoin="round"/>
<path d="M183.271 94.7348C183.271 94.7348 181.485 93.8257 179.66 92.9214" stroke="#263238" stroke-width="1.78978" stroke-linecap="round" stroke-linejoin="round"/>
<path d="M182.051 92.4233C182.576 90.7679 183.269 89.1703 184.118 87.6552" stroke="#263238" stroke-width="1.78978" stroke-linecap="round" stroke-linejoin="round"/>
<path d="M184.326 105.519C183.135 104.016 181.733 102.694 180.163 101.592" stroke="#263238" stroke-width="1.78978" stroke-linecap="round" stroke-linejoin="round"/>
<path d="M184.936 107.221C185.219 106.013 185.602 104.83 186.083 103.686C186.756 102.163 186.872 101.964 186.872 101.964" stroke="#263238" stroke-width="1.78978" stroke-linecap="round" stroke-linejoin="round"/>
<path d="M187.821 117.599C188.513 116.739 189.281 115.943 190.115 115.219C190.646 114.826 191.144 114.391 191.605 113.918" stroke="#263238" stroke-width="1.78978" stroke-linecap="round" stroke-linejoin="round"/>
<path d="M187.913 115.442C187.334 114.519 186.687 113.641 185.977 112.816C185.282 112.058 184.526 111.357 183.716 110.722" stroke="#263238" stroke-width="1.78978" stroke-linecap="round" stroke-linejoin="round"/>
<path d="M187.307 122.212C187.23 121.244 186.896 120.314 186.339 119.518C185.459 118.358 184.403 116.82 184.007 116.215" stroke="#263238" stroke-width="1.78978" stroke-linecap="round" stroke-linejoin="round"/>
<path d="M196.591 139.814H183.881C183.628 139.814 183.386 139.716 183.205 139.539C183.024 139.363 182.919 139.123 182.913 138.871L181.088 124.818H199.345L197.52 138.871C197.514 139.117 197.415 139.351 197.242 139.526C197.069 139.702 196.837 139.804 196.591 139.814Z" fill="#263238"/>
<path d="M199.199 127.193H181.107C180.731 127.194 180.369 127.046 180.101 126.781C179.834 126.517 179.682 126.157 179.68 125.781C179.686 125.405 179.837 125.047 180.103 124.78C180.368 124.514 180.727 124.362 181.102 124.354H199.199C199.387 124.353 199.572 124.39 199.745 124.461C199.918 124.532 200.076 124.637 200.209 124.769C200.341 124.901 200.446 125.058 200.518 125.231C200.59 125.403 200.627 125.589 200.627 125.776C200.626 125.963 200.589 126.147 200.517 126.32C200.445 126.492 200.339 126.648 200.207 126.78C200.074 126.911 199.917 127.016 199.744 127.086C199.571 127.157 199.386 127.193 199.199 127.193Z" fill="#263238"/>
<path d="M158.413 70.9862C158.412 74.9549 157.066 78.8064 154.594 81.9125C152.121 85.0187 148.668 87.1963 144.798 88.0904H144.745C144.285 88.192 143.825 88.2839 143.351 88.3516C142.519 88.4699 141.68 88.5297 140.839 88.5305C136.245 88.514 131.84 86.7011 128.568 83.4798C125.296 80.2585 123.416 75.885 123.331 71.2959C123.246 66.7068 124.963 62.2669 128.114 58.9271C131.266 55.5874 135.6 53.6132 140.191 53.4274C140.35 53.4274 140.52 53.4274 140.675 53.4274C140.726 53.4226 140.778 53.4226 140.829 53.4274C140.889 53.4226 140.949 53.4226 141.008 53.4274C143.38 53.4427 145.722 53.9447 147.891 54.9023C151.019 56.2716 153.681 58.5221 155.549 61.3786C157.418 64.235 158.413 67.5736 158.413 70.9862Z" fill="#92E3A9"/>
<path opacity="0.4" d="M147.901 54.9071C127.607 53.8529 127.51 76.3636 127.51 76.3636C127.51 76.3636 124.412 69.018 129.47 60.889C132.297 56.3385 137.214 54.3317 141.018 53.4419C143.389 53.4541 145.731 53.9529 147.901 54.9071Z" fill="white"/>
<path d="M158.413 70.9862C158.413 74.9647 157.06 78.8252 154.577 81.9353C152.094 85.0454 148.627 87.2207 144.745 88.1049C143.464 88.3995 142.154 88.5472 140.839 88.545C136.178 88.6309 131.674 86.8634 128.317 83.6312C124.961 80.3991 123.027 75.9671 122.941 71.3102C122.855 66.6533 124.624 62.153 127.859 58.7993C131.094 55.4457 135.53 53.5133 140.191 53.4274C140.403 53.4274 140.621 53.4274 140.839 53.4274C145.5 53.4287 149.969 55.279 153.264 58.5716C156.56 61.8643 158.412 66.3297 158.413 70.9862V70.9862Z" stroke="#263238" stroke-width="1.52" stroke-linecap="round" stroke-linejoin="round"/>
<path d="M158.413 70.9862C158.413 74.9647 157.061 78.8252 154.577 81.9353C152.094 85.0454 148.627 87.2207 144.745 88.1049C144.532 88.1049 144.314 88.1049 144.097 88.1049C139.783 88.0936 135.624 86.4978 132.411 83.6213C129.199 80.7448 127.157 76.7886 126.674 72.5055C126.192 68.2225 127.303 63.9117 129.795 60.3938C132.287 56.8759 135.987 54.3964 140.191 53.4274C140.404 53.4274 140.621 53.4274 140.839 53.4274C145.5 53.4287 149.969 55.279 153.265 58.5716C156.56 61.8643 158.412 66.3297 158.413 70.9862V70.9862Z" stroke="#263238" stroke-width="1.52" stroke-linecap="round" stroke-linejoin="round"/>
<path d="M146.894 81.9587L147.349 83.8156L144.309 84.5555L143.854 82.7034C141.134 82.7034 138.951 80.9383 138.254 78.1045L138.046 77.2631L141.4 76.0493L141.613 76.9246C142.035 78.6461 143.172 79.4731 144.59 79.1249C144.901 79.0765 145.198 78.9612 145.461 78.787C145.723 78.6127 145.945 78.3837 146.11 78.1157C146.275 77.8477 146.38 77.5471 146.418 77.2346C146.455 76.9221 146.424 76.6051 146.328 76.3056C145.921 74.6518 144.024 73.6169 141.826 72.5482C139.227 71.2909 136.546 69.6951 135.81 66.692C135.094 63.7615 135.994 61.3195 138.313 60.1105L137.858 58.2535L140.892 57.5137L141.347 59.3658C143.985 59.3271 145.95 61.0632 146.671 64.0614L146.821 64.6707L143.472 65.8845L143.303 65.2123C142.857 63.3892 141.918 62.6203 140.67 62.9249C139.421 63.2296 138.903 64.1823 139.266 65.662C139.673 67.3159 141.594 68.312 143.767 69.4243C146.337 70.7251 149.048 72.2774 149.783 75.2756C150.524 78.1626 149.343 80.7352 146.894 81.9587Z" stroke="#263238" stroke-width="1.52" stroke-miterlimit="10"/>
<path opacity="0.3" d="M146.894 81.9587L147.349 83.8156L144.309 84.5555L143.854 82.7034C141.134 82.7034 138.951 80.9383 138.254 78.1045L138.046 77.2631L141.4 76.0493L141.613 76.9246C142.035 78.6461 143.172 79.4731 144.59 79.1249C144.901 79.0765 145.198 78.9612 145.461 78.787C145.723 78.6127 145.945 78.3837 146.11 78.1157C146.275 77.8477 146.38 77.5471 146.418 77.2346C146.455 76.9221 146.424 76.6051 146.328 76.3056C145.921 74.6518 144.024 73.6169 141.826 72.5482C139.227 71.2909 136.546 69.6951 135.81 66.692C135.094 63.7615 135.994 61.3195 138.313 60.1105L137.858 58.2535L140.892 57.5137L141.347 59.3658C143.985 59.3271 145.95 61.0632 146.671 64.0614L146.821 64.6707L143.472 65.8845L143.303 65.2123C142.857 63.3892 141.918 62.6203 140.67 62.9249C139.421 63.2296 138.903 64.1823 139.266 65.662C139.673 67.3159 141.594 68.312 143.767 69.4243C146.337 70.7251 149.048 72.2774 149.783 75.2756C150.524 78.1626 149.343 80.7352 146.894 81.9587Z" fill="black"/>
<path d="M131.856 86.0835L135.569 85.9143" stroke="#263238" stroke-width="1.52" stroke-linecap="round" stroke-linejoin="round"/>
<path d="M130.07 84.8505L133.308 84.5748" stroke="#263238" stroke-width="1.52" stroke-linecap="round" stroke-linejoin="round"/>
<path d="M128.618 83.5496L131.856 83.274" stroke="#263238" stroke-width="1.52" stroke-linecap="round" stroke-linejoin="round"/>
<path d="M128.173 58.8096H130.946" stroke="#263238" stroke-width="1.52" stroke-linecap="round" stroke-linejoin="round"/>
<path d="M129.543 57.533L132.306 57.4072" stroke="#263238" stroke-width="1.52" stroke-linecap="round" stroke-linejoin="round"/>
<path d="M131.275 56.2515L134.189 55.9758" stroke="#263238" stroke-width="1.52" stroke-linecap="round" stroke-linejoin="round"/>
<path opacity="0.3" d="M144.798 88.0904H144.745C143.464 88.385 142.154 88.5327 140.839 88.5305C136.245 88.514 131.84 86.7011 128.568 83.4798C125.296 80.2585 123.416 75.885 123.331 71.2959C123.246 66.7068 124.963 62.2669 128.114 58.9271C131.266 55.5874 135.6 53.6132 140.191 53.4274C140.35 53.4274 140.52 53.4274 140.675 53.4274C136.391 54.7766 129.204 58.2245 127.282 65.4153C124.567 75.6334 130.68 87.2345 144.798 88.0904Z" fill="black"/>
<path opacity="0.1" d="M158.413 70.9862C158.413 74.9549 157.066 78.8064 154.594 81.9125C152.121 85.0187 148.668 87.1964 144.798 88.0904H144.745C144.285 88.192 143.826 88.2839 143.351 88.3516L147.901 54.8926C151.029 56.2641 153.689 58.5167 155.556 61.3749C157.423 64.2332 158.416 67.5731 158.413 70.9862Z" fill="black"/>
<path d="M168.384 43.3447C166.992 45.3086 164.975 46.7432 162.662 47.4142C160.35 48.0852 157.877 47.953 155.65 47.0393L155.587 47.0103C155.256 46.8651 154.933 46.7037 154.619 46.5267C154.263 46.3359 153.921 46.1227 153.593 45.8884C151.448 44.2524 150.006 41.8643 149.556 39.2066C149.107 36.5489 149.683 33.8198 151.17 31.5705C152.657 29.3213 154.942 27.7198 157.565 27.0894C160.188 26.4591 162.953 26.847 165.3 28.1748L165.538 28.3247C165.649 28.3876 165.755 28.4649 165.867 28.5423C165.978 28.6197 166.191 28.7793 166.351 28.905C168.466 30.6005 169.855 33.0388 170.233 35.7222C170.61 38.4056 169.949 41.1319 168.384 43.3447Z" fill="#92E3A9"/>
<path opacity="0.4" d="M152.344 43.4898C152.344 43.4898 150.606 38.3783 152.915 34.6161C155.819 29.9012 160.267 27.7492 166.322 28.9098C166.322 28.9098 163.04 26.695 157.547 28.2667C152.053 29.8383 149.106 37.3918 152.344 43.4898Z" fill="white"/>
<path d="M168.384 43.3496C166.991 45.3118 164.973 46.7444 162.661 47.4136C160.348 48.0828 157.876 47.9492 155.65 47.0345C154.915 46.7344 154.216 46.3515 153.568 45.8932C151.411 44.2396 149.968 41.8241 149.537 39.1418C149.105 36.4596 149.716 33.7139 151.246 31.4677C152.775 29.2215 155.107 27.645 157.762 27.0615C160.418 26.478 163.196 26.9317 165.528 28.3296C165.635 28.3924 165.746 28.465 165.852 28.5423C168.15 30.1734 169.706 32.6478 170.18 35.4233C170.655 38.1989 170.009 41.0492 168.384 43.3496Z" stroke="#263238" stroke-width="1.52" stroke-linecap="round" stroke-linejoin="round"/>
<path d="M168.383 43.3495C166.99 45.3118 164.973 46.7444 162.66 47.4136C160.348 48.0828 157.876 47.9492 155.649 47.0344L155.325 46.8217C153.222 45.2988 151.749 43.0606 151.183 40.5283C150.616 37.996 150.996 35.3442 152.249 33.0718C153.503 30.7994 155.545 29.0632 157.99 28.1898C160.436 27.3164 163.116 27.3661 165.528 28.3295C165.634 28.3924 165.746 28.4649 165.852 28.5423C168.149 30.1733 169.706 32.6477 170.18 35.4233C170.655 38.1988 170.009 41.0491 168.383 43.3495Z" stroke="#263238" stroke-width="1.52" stroke-linecap="round" stroke-linejoin="round"/>
<path d="M158.854 44.7616L158.433 45.8351L156.671 45.1436L157.092 44.0652C156.438 43.6054 155.965 42.9328 155.753 42.1626C155.541 41.3925 155.604 40.5727 155.93 39.8436L156.124 39.36L158.205 39.9258L158.007 40.4384C157.615 41.4346 157.881 42.2373 158.704 42.5613C158.874 42.6462 159.062 42.6931 159.252 42.6985C159.443 42.704 159.633 42.668 159.808 42.5931C159.983 42.5181 160.14 42.4059 160.268 42.2643C160.396 42.1228 160.491 41.9551 160.548 41.7731C160.925 40.8059 160.349 39.6405 159.638 38.3493C158.796 36.8212 158.031 35.0997 158.713 33.3588C159.396 31.6179 160.683 30.7668 162.247 30.9796L162.673 29.906L164.429 30.5975L164.008 31.6662C165.325 32.5657 165.688 34.0841 165.005 35.8492L164.865 36.1974L162.784 35.6316L162.939 35.2399C163.355 34.1857 163.161 33.4748 162.455 33.1895C161.748 32.9042 161.143 33.1895 160.804 34.0551C160.427 35.0223 161.032 36.1732 161.714 37.4789C162.532 39.0215 163.326 40.7334 162.643 42.4694C162.385 43.2373 161.862 43.8888 161.168 44.3084C160.475 44.728 159.655 44.8885 158.854 44.7616V44.7616Z" stroke="#263238" stroke-width="1.52" stroke-miterlimit="10"/>
<path opacity="0.3" d="M158.854 44.7616L158.433 45.8351L156.671 45.1436L157.092 44.0652C156.438 43.6054 155.965 42.9328 155.753 42.1626C155.541 41.3925 155.604 40.5727 155.93 39.8436L156.124 39.36L158.205 39.9258L158.007 40.4384C157.615 41.4346 157.881 42.2373 158.704 42.5613C158.874 42.6462 159.062 42.6931 159.252 42.6985C159.443 42.704 159.633 42.668 159.808 42.5931C159.983 42.5181 160.14 42.4059 160.268 42.2643C160.396 42.1228 160.491 41.9551 160.548 41.7731C160.925 40.8059 160.349 39.6405 159.638 38.3493C158.796 36.8212 158.031 35.0997 158.713 33.3588C159.396 31.6179 160.683 30.7668 162.247 30.9796L162.673 29.906L164.429 30.5975L164.008 31.6662C165.325 32.5657 165.688 34.0841 165.005 35.8492L164.865 36.1974L162.784 35.6316L162.939 35.2399C163.355 34.1857 163.161 33.4748 162.455 33.1895C161.748 32.9042 161.143 33.1895 160.804 34.0551C160.427 35.0223 161.032 36.1732 161.714 37.4789C162.532 39.0215 163.326 40.7334 162.643 42.4694C162.385 43.2373 161.862 43.8888 161.168 44.3084C160.475 44.728 159.655 44.8885 158.854 44.7616Z" fill="black"/>
<path opacity="0.3" d="M165.276 28.1796C162.372 27.6622 158.694 27.3769 156.709 28.6632C153.065 30.9989 150.795 33.9439 150.829 38.7169C150.863 43.4898 155.325 46.8362 155.325 46.8362L155.587 47.0248C154.875 46.7277 154.198 46.3531 153.568 45.9077C151.424 44.2717 149.982 41.8837 149.532 39.226C149.082 36.5683 149.659 33.8391 151.146 31.5899C152.632 29.3407 154.918 27.7391 157.541 27.1088C160.164 26.4785 162.929 26.8664 165.276 28.1941V28.1796Z" fill="black"/>
<path opacity="0.1" d="M168.383 43.3447C166.992 45.3086 164.975 46.7432 162.662 47.4142C160.35 48.0852 157.877 47.953 155.649 47.0393L155.587 47.0103C155.256 46.8651 154.933 46.7037 154.619 46.5267L166.322 28.9099C168.441 30.6011 169.834 33.0364 170.217 35.7189C170.6 38.4013 169.944 41.1288 168.383 43.3447Z" fill="black"/>
<path d="M162.905 179.526C158.4 184.94 153.029 189.573 147.01 193.235C145.135 194.357 143.196 195.367 141.202 196.263C127.452 202.438 111.78 202.839 97.1244 199.29C66.3081 191.828 49.9586 164.651 47.8823 134.48C47.3257 126.327 46.0769 117.521 49.3827 109.765C52.6884 102.008 59.3724 97.1915 66.9325 93.8451C72.421 91.403 78.35 89.7637 83.737 88.4242C93.4857 86.0179 103.769 87.078 112.821 91.4224C119.156 94.4254 123.667 99.6432 128.996 104.039C129.56 104.503 130.128 104.966 130.699 105.427C136.082 109.756 141.741 113.731 147.639 117.328C156.598 122.787 165.77 127.938 171.496 137.106C180.629 151.72 172.924 167.63 162.905 179.526Z" fill="#92E3A9"/>
<path opacity="0.4" d="M162.905 179.526C158.4 184.94 153.029 189.573 147.01 193.235C145.135 194.357 143.196 195.367 141.202 196.263C127.452 202.438 111.78 202.839 97.1244 199.29C66.3081 191.828 49.9586 164.651 47.8823 134.48C47.3257 126.327 46.0769 117.521 49.3827 109.765C52.6884 102.008 59.3724 97.1915 66.9325 93.8451C72.421 91.403 78.35 89.7637 83.737 88.4242C93.4857 86.0179 103.769 87.078 112.821 91.4224C119.156 94.4254 123.667 99.6432 128.996 104.039C129.56 104.503 130.128 104.966 130.699 105.427C136.082 109.756 141.741 113.731 147.639 117.328C156.598 122.787 165.77 127.938 171.496 137.106C180.629 151.72 172.924 167.63 162.905 179.526Z" fill="white"/>
<path d="M130.68 105.427C130.109 104.969 129.541 104.505 128.977 104.034C123.653 99.6287 119.132 94.4254 112.801 91.4224C103.749 87.0804 93.4666 86.0204 83.7177 88.4242C70.9062 91.6013 55.0165 96.4951 49.3537 109.769C46.048 117.507 47.2967 126.327 47.8581 134.48C49.9587 164.651 66.3082 191.828 97.1245 199.29C113.89 203.352 131.972 202.24 147.01 193.235C153.029 189.573 158.4 184.94 162.905 179.526C172.924 167.63 180.629 151.72 171.506 137.106C165.785 127.918 156.613 122.787 147.649 117.328C141.741 113.732 136.073 109.757 130.68 105.427V105.427Z" stroke="#263238" stroke-width="1.52" stroke-miterlimit="10"/>
<path d="M83.9985 159.225C81.4328 160.001 78.9429 161.008 76.5594 162.233" stroke="#263238" stroke-width="1.52" stroke-linecap="round" stroke-linejoin="round"/>
<path d="M99.7042 156.237C95.9563 156.561 92.2363 157.151 88.5721 158.002" stroke="#263238" stroke-width="1.52" stroke-linecap="round" stroke-linejoin="round"/>
<path d="M96.4372 155.463C96.4372 155.463 81.9752 147.058 64.5222 153.795" stroke="#263238" stroke-width="1.52" stroke-linecap="round" stroke-linejoin="round"/>
<path opacity="0.1" d="M162.905 179.526C158.4 184.94 153.029 189.573 147.011 193.235C145.135 194.357 143.196 195.367 141.203 196.263C139.629 195.781 138.083 195.215 136.571 194.565C127.539 190.697 119.96 184.154 112.555 177.703C108.087 173.834 103.547 169.869 98.1991 167.32C90.9668 163.904 82.7389 163.227 75.0445 165.415C79.024 160.927 84.4344 157.953 90.3583 156.996C86.5347 153.519 81.2155 152.059 76.0464 151.967C70.8773 151.875 68.0314 152.508 62.9784 153.64C64.6676 150.535 69.1494 147.726 72.6875 147.808C69.3241 147.763 65.9661 147.526 62.6299 147.097C58.0658 146.362 56.0233 140.994 55.3409 136.429C53.4533 123.856 55.3651 110.466 62.2331 99.7786C63.5928 97.647 65.1658 95.6589 66.9279 93.8451C72.4164 91.403 78.3454 89.7637 83.7323 88.4242C93.4811 86.0179 103.764 87.078 112.816 91.4224C119.151 94.4254 123.662 99.6432 128.991 104.039C129.556 104.503 130.124 104.966 130.695 105.427C136.078 109.756 141.736 113.731 147.635 117.328C156.594 122.787 165.766 127.938 171.491 137.106C180.629 151.72 172.924 167.63 162.905 179.526Z" fill="black"/>
<path d="M167.948 179.158C170.662 181.412 173.501 183.511 176.452 185.445C182.207 185.832 179.627 192.781 179.627 192.781L174.7 195.948C174.7 195.948 166.264 189.251 161.656 187.079C157.048 184.908 167.948 179.158 167.948 179.158Z" fill="white"/>
<path opacity="0.3" d="M127.055 105.993C127.055 105.993 126.266 98.1925 125.008 96.0019L105.899 92.1139V90.6342C105.899 90.6342 106.34 88.0615 102.081 86.4512C97.8215 84.8409 88.9449 86.9348 86.6556 88.666C84.3663 90.3972 85.2036 93.3761 85.2036 93.3761C85.2036 93.3761 77.508 97.2592 74.0522 98.739C71.2233 100.043 68.4655 101.496 65.7903 103.091C65.7903 103.091 64.2222 121.022 64.5319 125.186C64.8417 129.35 64.2803 133.267 64.6384 135.573C64.9966 137.88 65.2773 139.19 67.6973 141.154C70.1173 143.117 72.3195 145.99 78.6647 143.141L77.779 142.44L119.548 128.382L127.055 105.993Z" fill="black"/>
<path d="M127.055 105.993C127.055 105.993 126.266 98.1925 125.008 96.0019L105.899 92.1139V90.6342C105.899 90.6342 106.34 88.0615 102.081 86.4512C97.8215 84.8409 88.9449 86.9348 86.6556 88.666C84.3663 90.3972 85.2036 93.3761 85.2036 93.3761C85.2036 93.3761 77.508 97.2592 74.0522 98.739C71.2233 100.043 68.4655 101.496 65.7903 103.091C65.7903 103.091 64.2222 121.022 64.5319 125.186C64.8417 129.35 64.2803 133.267 64.6384 135.573C64.9966 137.88 65.2773 139.19 67.6973 141.154C70.1173 143.117 72.3195 145.99 78.6647 143.141L77.779 142.44L119.548 128.382L127.055 105.993Z" fill="#92E3A9"/>
<path opacity="0.05" d="M127.055 105.993C127.055 105.993 126.266 98.1925 125.008 96.0019L105.899 92.1139V90.6342C105.899 90.6342 106.34 88.0615 102.081 86.4512C97.8215 84.8409 88.9449 86.9348 86.6556 88.666C84.3663 90.3972 85.2036 93.3761 85.2036 93.3761C85.2036 93.3761 77.508 97.2592 74.0522 98.739C71.2233 100.043 68.4655 101.496 65.7903 103.091C65.7903 103.091 64.2222 121.022 64.5319 125.186C64.8417 129.35 64.2803 133.267 64.6384 135.573C64.9966 137.88 65.2773 139.19 67.6973 141.154C70.1173 143.117 72.3195 145.99 78.6647 143.141L77.779 142.44L119.548 128.382L127.055 105.993Z" fill="black"/>
<path opacity="0.1" d="M125.259 96.9497H117.264C116.512 96.9509 115.785 97.2183 115.212 97.7043C114.638 98.1903 114.256 98.8636 114.132 99.6046L110.193 123.3C110.193 123.3 104.767 123.75 100.924 126.55C97.081 129.35 87.6285 109.373 72.6923 109.363C72.6923 109.363 76.9902 119.18 77.9436 127.014C77.9436 127.014 68.6073 125.998 67.0585 129.649C65.5097 133.3 67.7603 140.143 71.7097 137.493C75.6592 134.843 79.3763 130.423 82.0141 133.218C84.6519 136.013 96.4373 137.517 96.4373 137.517L114.573 128.382L121.605 125.08L125.259 96.9497Z" fill="black"/>
<path opacity="0.4" d="M99.8737 85.2035C99.8737 85.2035 104.414 86.4608 105.149 87.9841C105.885 89.5074 105.808 93.3615 105.808 93.3615C104.706 95.9375 103.036 98.2318 100.924 100.074L97.536 93.3615L97.8409 100.973C97.8409 100.973 91.4134 99.9043 88.6836 97.854L85.9587 95.7987C85.9587 95.7987 84.7826 91.9301 84.952 90.6196C85.1214 89.3091 90.0243 86.6494 90.0243 86.6494L99.8737 85.2035Z" fill="white"/>
<path d="M175.494 202.573C175.368 202.298 177.357 198.787 175.799 195.213C174.24 191.64 171.757 193.018 171.757 193.018C171.757 193.018 164.686 188.521 161.714 187.099C159.573 186.024 157.511 184.799 155.543 183.433L152.402 187.66L155.306 196.635L175.494 202.573Z" fill="#92E3A9"/>
<path d="M171.501 192.8L180.581 198.342C180.581 198.342 186.965 194.251 190.009 191.427C193.053 188.603 199.892 182.587 199.892 182.587L204.248 176.731C204.248 176.731 201.228 172.998 196.195 175.996C189.69 179.864 181.757 185.484 176.467 185.43C176.467 185.43 177.507 191.925 171.535 192.8" fill="#92E3A9"/>
<path d="M98.3346 61.7595C98.3346 61.7595 102.453 67.988 103.204 70.0046C103.954 72.0211 104.559 75.0048 104.409 76.441C104.259 77.8773 102.749 85.571 101.989 85.7935L101.258 86.6204L101.742 89.8797C101.742 89.8797 98.5186 95.4458 89.0418 91.3643C89.0418 91.3643 88.674 84.865 87.5221 82.8243C86.3702 80.7836 84.6471 83.2112 82.9192 77.3163C81.1914 71.4215 86.6944 65.2268 86.6944 65.2268L98.3346 61.7595Z" fill="white"/>
<path opacity="0.5" d="M200.294 174.913C200.294 174.913 195.623 175.725 194.108 178.486C192.594 181.248 189.685 186.378 188.692 188.859C187.7 191.34 179.496 197.331 179.496 197.331L180.585 198.342C180.585 198.342 187.265 194.217 191.296 190.295C195.328 186.373 204.219 176.508 204.219 176.508C204.219 176.508 203.58 175.875 200.294 174.913Z" fill="white"/>
<path opacity="0.5" d="M153.559 186.107L152.402 187.66L155.955 195.02L175.494 202.037L176.399 199.179C176.399 199.179 176.699 196.277 169.841 194.072C162.982 191.867 158.801 190.411 156.85 188.898C154.899 187.384 153.559 186.107 153.559 186.107Z" fill="white"/>
<path d="M89.0563 131.443C89.0563 131.443 83.0741 130.544 80.2814 135.433C77.4887 140.322 77.7743 142.44 77.7743 142.44C77.7743 142.44 81.7286 146.028 87.1639 145.825C92.5992 145.622 100.513 139.403 103.092 137.377C105.672 135.351 112.177 129.553 116.615 130.752L117.099 126.559C117.099 126.559 116.664 124.678 112.869 125.186C109.075 125.694 107.584 127.855 106.359 127.855C105.135 127.855 103.978 126.68 101.519 130.878C101.514 130.878 92.8848 132.406 89.0563 131.443Z" fill="white"/>
<path d="M96.8293 70.7155C96.9566 71.4991 97.1377 72.273 97.3713 73.0318C97.4588 73.4022 97.6238 73.7499 97.8553 74.0521C98.3103 74.5357 99.046 74.6614 99.7187 74.763C99.8299 74.7709 99.9353 74.8151 100.019 74.8887C100.073 74.9754 100.099 75.0769 100.091 75.1789C100.087 75.9406 99.8584 76.6841 99.4332 77.3163" stroke="#263238" stroke-width="1.52" stroke-linecap="round" stroke-linejoin="round"/>
<path opacity="0.1" d="M157.571 181.093L153.559 186.088C153.559 186.088 157.963 190.155 162.523 191.664C167.082 193.173 175.063 196.016 176.399 198.207L175.886 195.6C175.886 195.6 163.403 187.95 160.538 186.122C159.691 185.567 158.983 184.825 158.468 183.953C157.954 183.081 157.647 182.102 157.571 181.093Z" fill="black"/>
<path opacity="0.1" d="M171.501 192.8L179.492 197.331C179.492 197.331 183.436 194.633 185.372 192.646C187.308 190.658 189.694 188.453 191.18 183.999C193.208 177.843 199.016 174.913 199.016 174.913C199.016 174.913 190.938 178.714 186.732 181.683C182.526 184.652 178.427 185.909 176.046 185.706C176.021 185.721 177.933 191.765 171.501 192.8Z" fill="black"/>
<path d="M94.0125 78.414C94.0125 78.414 97.1536 80.8754 100.416 79.9518C100.416 79.9518 97.3376 86.0449 94.0125 78.414Z" fill="white" stroke="#263238" stroke-width="1.52" stroke-linecap="round" stroke-linejoin="round"/>
<path d="M93.8962 73.0946C93.9882 73.7717 93.7801 74.3568 93.4413 74.4051C93.1025 74.4535 92.7491 73.9216 92.6572 73.2591C92.5652 72.5966 92.7685 71.9969 93.1121 71.9486C93.4558 71.9002 93.8236 72.4176 93.8962 73.0946Z" fill="#263238"/>
<path d="M100.735 71.8615C100.822 72.5434 100.619 73.1285 100.28 73.172C99.9414 73.2155 99.5833 72.6884 99.4961 72.0308C99.409 71.3731 99.6075 70.7638 99.9511 70.7203C100.295 70.6767 100.643 71.1845 100.735 71.8615Z" fill="#263238"/>
<path d="M93.4123 70.2221C93.4123 70.2221 91.5828 69.2792 90.2808 71.3005" stroke="#263238" stroke-width="1.52" stroke-linecap="round" stroke-linejoin="round"/>
<path d="M98.1021 68.9649C98.1021 68.9649 100.038 67.3062 101.156 68.9649" stroke="#263238" stroke-width="1.52" stroke-linecap="round" stroke-linejoin="round"/>
<path d="M87.1976 76.4458C87.1976 76.4458 86.0215 74.7098 84.7776 74.763C83.5337 74.8162 83.04 76.5571 83.4853 78.2399C83.9306 79.9228 85.7843 82.273 87.1879 82.0505C87.9796 81.9486 88.702 81.547 89.2062 80.9286" stroke="#263238" stroke-width="1.52" stroke-linecap="round" stroke-linejoin="round"/>
<path d="M98.4748 63.1619C99.7962 64.2597 101.195 65.4541 101.863 67.0693C102.453 68.4426 102.584 69.9707 103.126 71.3586C103.702 72.8432 104.331 74.3955 104.38 76.0155C104.354 77.5143 104.158 79.0053 103.794 80.4596C103.593 81.7206 103.294 82.964 102.899 84.1784C102.245 85.9144 101.04 86.9831 99.4235 87.8052C98.2474 88.4049 96.2872 89.256 95.0142 88.4532C94.2737 87.9696 93.1605 86.5866 92.2361 85.3148" stroke="#263238" stroke-width="1.52" stroke-linecap="round" stroke-linejoin="round"/>
<path d="M87.1978 82.0506C87.1978 82.0506 89.2789 87.1475 88.7756 90.7309" stroke="#263238" stroke-width="1.52" stroke-linecap="round" stroke-linejoin="round"/>
<path d="M86.6654 75.5899C86.9424 75.3851 87.1619 75.1124 87.3026 74.7982C87.4433 74.4839 87.5006 74.1387 87.4688 73.7958C87.3914 73.0124 86.8493 72.2871 86.9558 71.5037C87.0448 71.1285 87.1848 70.7673 87.372 70.4301C87.6539 69.7796 87.778 69.0717 87.7342 68.3641C87.6905 67.6566 87.4802 66.9693 87.1203 66.3584C87.1203 66.3584 93.7318 66.6679 96.8294 64.6997C99.927 62.7315 102.289 57.6974 100.416 55.294C98.5427 52.8907 94.8934 56.1693 92.1878 56.532C89.4822 56.8947 79.8603 58.4277 78.326 62.1319C76.7918 65.8361 79.1295 67.166 79.2021 70.7009C79.2747 74.2359 79.2747 80.9335 84.5648 80.3193C84.5648 80.3193 82.5852 77.7612 83.9598 75.1257C84.8939 74.0183 86.6654 75.5899 86.6654 75.5899Z" fill="#263238"/>
<path d="M99.6315 59.4722C100.529 60.1708 101.274 61.0465 101.818 62.0448C102.363 63.0431 102.696 64.1427 102.797 65.2751C103.092 67.9251 107.797 73.0753 104.404 76.0106C104.404 76.0106 103.615 72.8915 103.15 71.3537C102.686 69.8159 102.09 67.0015 101.311 66.0343C100.532 65.0672 96.3983 61.6821 96.3983 61.6821L99.6315 59.4722Z" fill="#263238"/>
<path d="M87.8074 90.6196C87.8074 90.6196 91.0696 92.7667 97.1292 92.8537L97.8407 100.973C97.8407 100.973 91.026 100.456 85.9585 95.7987C85.9585 95.7987 84.5888 92.1767 84.9518 90.6196C85.3148 89.0625 88.5721 87.5198 88.5721 87.5198" stroke="#263238" stroke-width="1.52" stroke-linecap="round" stroke-linejoin="round"/>
<path d="M101.514 86.9879L101.708 89.8894C100.43 91.2188 98.8637 92.2364 97.1292 92.8634L100.924 100.083C100.924 100.083 105.449 96.5628 105.899 92.8634C105.899 92.8634 105.938 89.077 105.149 87.9938C104.36 86.9105 101.485 86.4028 101.485 86.4028" stroke="#263238" stroke-width="1.52" stroke-linecap="round" stroke-linejoin="round"/>
<path opacity="0.8" d="M83.1514 64.5498C83.6354 63.336 84.9615 62.6155 86.2538 62.422C87.5461 62.2286 88.8722 62.364 90.179 62.3301C91.9885 62.3156 93.7607 61.8145 95.3094 60.8794C96.0789 60.4112 96.7486 59.7961 97.28 59.0692C97.8115 58.3424 98.1945 57.518 98.407 56.6432" stroke="white" stroke-width="1.52" stroke-linecap="round" stroke-linejoin="round"/>
<path opacity="0.8" d="M80.0295 64.3128C80.8475 61.8321 83.4998 60.2991 86.1085 60.0815C87.4008 59.9703 88.7076 60.1202 89.9805 59.9703C91.2535 59.8204 92.6087 59.2884 93.2814 58.181" stroke="white" stroke-width="1.52" stroke-linecap="round" stroke-linejoin="round"/>
<path d="M78.655 143.141C72.363 146.401 70.127 143.045 66.6228 140.269C63.1186 137.493 65.4176 132.532 64.6868 124.577C63.956 116.622 65.7758 103.091 65.7758 103.091C65.7758 103.091 67.344 102.733 71.6951 100.074C76.0463 97.4139 85.2035 93.3615 85.2035 93.3615" stroke="#263238" stroke-width="1.52" stroke-linecap="round" stroke-linejoin="round"/>
<path d="M84.889 131.1C84.889 131.1 83.892 127.942 81.0751 127.86C78.2582 127.778 73.8151 129.045 70.6497 135.027" stroke="#263238" stroke-width="1.52" stroke-linecap="round" stroke-linejoin="round"/>
<path d="M80.4312 127.672C80.2562 127.66 80.0844 127.619 79.923 127.551C77.6008 126.716 75.0805 126.601 72.692 127.222" stroke="#263238" stroke-width="1.52" stroke-linecap="round" stroke-linejoin="round"/>
<path d="M71.0708 107.409C76.1964 113.067 78.6938 120.553 81.0606 127.807" stroke="#263238" stroke-width="1.52" stroke-linecap="round" stroke-linejoin="round"/>
<path d="M105.899 92.1139C105.899 92.1139 115.192 94.3287 119.732 94.8558C124.272 95.3829 125.008 96.0164 125.008 96.0164L125.855 99.179" stroke="#263238" stroke-width="1.52" stroke-linecap="round" stroke-linejoin="round"/>
<path d="M149.203 97.617L117.554 98.8308L114.97 131.352H120.39L147.872 125.205L151.328 98.3956L149.203 97.617Z" fill="white"/>
<path d="M116.615 132.314L151.231 99.1645L147.872 125.205L116.615 132.314Z" fill="#92E3A9"/>
<path opacity="0.7" d="M116.615 132.314L151.231 99.1645L147.872 125.205L116.615 132.314Z" fill="white"/>
<path d="M116.615 131.443L119.384 100.074L151.327 98.3956L147.872 125.205L116.615 131.443Z" stroke="#263238" stroke-width="1.52" stroke-linecap="round" stroke-linejoin="round"/>
<path d="M137.863 113.595C137.65 115.505 136.629 116.955 135.583 116.839C134.538 116.723 133.87 115.074 134.083 113.164C134.296 111.254 135.322 109.803 136.367 109.919C137.413 110.035 138.081 111.684 137.863 113.595Z" fill="#263238"/>
<path d="M147.872 125.205C147.872 125.205 162.498 124.789 167.072 127.807C171.646 130.824 174.332 145.956 173.698 153.993C173.064 162.03 167.546 180.474 167.546 180.474L156.976 168.52C156.976 168.52 151.768 149.602 154.609 142.193C154.609 142.193 140.573 142.982 135.046 141.25C135.046 141.25 130.094 133.151 121.605 130.471L147.872 125.205Z" fill="#263238"/>
<path d="M169.778 180.788C166.023 177.286 162.652 173.396 159.72 169.182C154.604 161.285 147.533 153.708 140.259 147.793C134.397 143.045 133.071 135.307 125.84 131.424C113.861 125.007 103.504 137.759 99.6316 140.341C95.7596 142.924 89.0562 145.849 89.0562 145.849C89.0562 145.849 91.5052 155.037 98.6974 156.125C105.89 157.214 113.164 152.257 116.605 154.651C120.047 157.044 122.593 167.731 133.957 173.994C143.245 179.11 155.901 184.101 162.431 187.466C163.883 188.221 164.967 189.014 165.79 189.463C168.045 190.692 170.455 192.138 172.73 193.569L180.566 198.337C180.566 198.337 188.431 193.69 191.451 189.405C191.853 188.83 192.69 187.297 193.474 185.817C195.183 182.582 197.346 179.681 200.342 178.08C202.414 176.963 204.258 176.629 204.214 176.513C204.016 176.146 200.26 174.226 197.709 175.275C192.308 177.505 181.51 186.069 176.413 185.43C174.043 184.123 171.818 182.566 169.778 180.788V180.788Z" stroke="#263238" stroke-width="1.52" stroke-miterlimit="10"/>
<path d="M169.778 180.788C165.068 182.688 163.171 185.624 162.445 187.471C155.916 184.086 143.259 179.115 133.971 173.999C122.607 167.712 120.081 157.044 116.62 154.655C113.159 152.266 105.88 157.238 98.7119 156.13C91.5439 155.023 89.0562 145.844 89.0562 145.844C89.0562 145.844 95.7644 142.943 99.6364 140.361C103.508 137.778 112.438 125.022 125.84 131.443C133.24 134.988 134.397 143.049 140.258 147.813C147.518 153.708 154.604 161.305 159.72 169.201C162.645 173.415 166.017 177.3 169.778 180.788Z" fill="#263238"/>
<path d="M134.388 139.79C134.388 139.79 130.763 132.43 124.95 131.003" stroke="white" stroke-width="1.52" stroke-linecap="round" stroke-linejoin="round"/>
<path d="M115.386 125.138C111.388 124.267 106.998 128.682 105.149 127.855C103.775 127.241 101.514 130.878 101.514 130.878C97.7939 131.414 94.0315 131.604 90.2759 131.444C84.889 131.1 82.3383 132.15 80.4313 135.027L77.7693 142.073C77.7693 142.073 84.7922 148.359 92.2893 144.698C99.7865 141.038 109.747 129.993 116.61 130.031" stroke="#263238" stroke-width="1.52" stroke-linecap="round" stroke-linejoin="round"/>
<path d="M171.196 192.612C171.196 192.612 177.759 193.148 176.22 185.314" stroke="#263238" stroke-width="1.52" stroke-miterlimit="10"/>
<path d="M202.124 180.474C201.64 181.441 195.623 186.557 190.44 191.03C190.44 190.963 191.892 188.23 192.492 187.065C193.871 184.492 197.434 177.437 204.214 176.508C205.178 177.089 202.124 180.474 202.124 180.474Z" fill="#263238"/>
<path d="M199.544 174.966C192.685 176.33 191.127 185.121 188.692 188.859C186.258 192.597 179.496 197.68 179.496 197.68" stroke="#263238" stroke-width="1.52" stroke-miterlimit="10"/>
<path d="M175.799 195.436C176.917 197.476 176.389 199.846 175.799 201.331C175.509 202.068 175.149 202.776 174.724 203.444C165.015 201.848 155.306 196.635 155.306 196.635L152.804 188.898L152.402 187.66L156.172 182.587" stroke="#263238" stroke-width="1.52" stroke-miterlimit="10"/>
<path d="M175.799 201.331C175.509 202.068 175.15 202.776 174.724 203.444C165.015 201.848 155.306 196.635 155.306 196.635L152.804 188.898C154.057 190.532 156.381 192.926 159.865 193.908C164.594 195.247 173.321 196.814 175.799 201.331Z" fill="#263238"/>
<path d="M114.97 130.22L117.554 98.8308L149.203 97.617L151.328 98.3956" stroke="#263238" stroke-width="1.52" stroke-linecap="round" stroke-linejoin="round"/>
<path d="M176.176 188.859C176.176 188.859 180.503 189.633 183.828 186.925C187.153 184.217 192.511 178.09 192.511 178.09" stroke="#263238" stroke-width="1.52" stroke-miterlimit="10"/>
<path d="M180.581 184.961C180.581 184.961 179.535 186.533 180.581 189.686" stroke="#263238" stroke-width="1.52" stroke-linecap="round" stroke-linejoin="round"/>
<path d="M183.649 183.457C183.173 185.025 183.314 186.714 184.041 188.182" stroke="#263238" stroke-width="1.52" stroke-linecap="round" stroke-linejoin="round"/>
<path d="M187.308 181.339C187.308 181.339 186.432 183.965 187.308 186.282" stroke="#263238" stroke-width="1.52" stroke-linecap="round" stroke-linejoin="round"/>
<path d="M157.029 181.934L153.559 186.108C153.559 186.108 157.053 189.923 161.985 191.509C166.917 193.095 175.726 195.789 176.457 198.656" stroke="#263238" stroke-width="1.52" stroke-miterlimit="10"/>
<path d="M135.361 112.195C135.167 112.195 135.01 112.349 135.01 112.54V114.714C135.01 114.904 135.167 115.059 135.361 115.059C135.554 115.059 135.711 114.904 135.711 114.714V112.54C135.711 112.349 135.554 112.195 135.361 112.195Z" fill="#6FCF97"/>
<path d="M136.31 113.106C136.134 113.106 135.991 113.247 135.991 113.42V114.174C135.991 114.348 136.134 114.488 136.31 114.488C136.486 114.488 136.629 114.348 136.629 114.174V113.42C136.629 113.247 136.486 113.106 136.31 113.106Z" fill="#6FCF97"/>
<path d="M135.991 112.639C135.991 112.466 136.134 112.325 136.31 112.325C136.486 112.325 136.629 112.466 136.629 112.639V112.703C136.629 112.876 136.486 113.016 136.31 113.016C136.134 113.016 135.991 112.876 135.991 112.703V112.639Z" fill="#6FCF97"/>
<path d="M137.239 113.266C137.063 113.266 136.92 113.406 136.92 113.58V113.643C136.92 113.817 137.063 113.957 137.239 113.957C137.415 113.957 137.558 113.817 137.558 113.643V113.58C137.558 113.406 137.415 113.266 137.239 113.266Z" fill="#6FCF97"/>
</svg>
