<svg width="315" height="221" viewBox="0 0 315 221" fill="none" xmlns="http://www.w3.org/2000/svg">
<path d="M18.4 194.22H38V205H7.2V156H37.65V166.78H18.4V174.9H35.9V185.54H18.4V194.22ZM61.6791 205L45.7191 156H57.9691L68.8191 192.05L79.6691 156H91.9191L75.9591 205H61.6791ZM112.93 194.22H132.53V205H101.73V156H132.18V166.78H112.93V174.9H130.43V185.54H112.93V194.22ZM170.209 205L160.969 188.9H155.649V205H144.449V156H164.049C168.716 156 172.683 157.633 175.949 160.9C179.216 164.167 180.849 168.133 180.849 172.8C180.849 175.787 180.009 178.563 178.329 181.13C176.696 183.65 174.526 185.61 171.819 187.01L182.249 205H170.209ZM155.649 166.5V179.1H164.049C165.589 179.1 166.896 178.493 167.969 177.28C169.089 176.067 169.649 174.573 169.649 172.8C169.649 171.027 169.089 169.533 167.969 168.32C166.896 167.107 165.589 166.5 164.049 166.5H155.649ZM204.316 194.22H223.916V205H193.116V156H223.566V166.78H204.316V174.9H221.816V185.54H204.316V194.22ZM252.985 205.98C247.991 205.98 243.815 204.907 240.455 202.76C237.141 200.567 234.785 197.603 233.385 193.87L243.045 188.27C245.005 192.797 248.435 195.06 253.335 195.06C257.768 195.06 259.985 193.73 259.985 191.07C259.985 189.623 259.261 188.503 257.815 187.71C256.415 186.87 253.755 185.913 249.835 184.84C247.781 184.28 245.985 183.65 244.445 182.95C242.905 182.25 241.388 181.34 239.895 180.22C238.448 179.053 237.328 177.607 236.535 175.88C235.788 174.153 235.415 172.17 235.415 169.93C235.415 165.403 237.025 161.787 240.245 159.08C243.511 156.373 247.385 155.02 251.865 155.02C255.878 155.02 259.425 155.977 262.505 157.89C265.585 159.757 268.011 162.487 269.785 166.08L260.335 171.61C259.448 169.743 258.351 168.343 257.045 167.41C255.738 166.43 254.011 165.94 251.865 165.94C250.185 165.94 248.878 166.313 247.945 167.06C247.058 167.76 246.615 168.623 246.615 169.65C246.615 170.863 247.175 171.913 248.295 172.8C249.461 173.687 251.841 174.667 255.435 175.74C257.395 176.347 258.911 176.837 259.985 177.21C261.058 177.583 262.411 178.213 264.045 179.1C265.725 179.94 266.985 180.85 267.825 181.83C268.711 182.763 269.481 184.023 270.135 185.61C270.835 187.15 271.185 188.923 271.185 190.93C271.185 195.597 269.505 199.283 266.145 201.99C262.785 204.65 258.398 205.98 252.985 205.98ZM313.505 156V166.78H300.905V205H289.705V166.78H277.105V156H313.505Z" fill="#393636"/>
<path d="M306.5 122.967H2.70007C12.8001 118.967 38.6001 89.0671 48.1001 79.9671C49.7001 78.3671 50.9001 77.4671 51.4001 77.3671C55.0001 76.5671 60.4001 75.2671 64.9001 71.1671C69.4001 67.0671 81.0001 52.5671 84.4001 50.8671C87.8001 49.1671 94.3001 47.2671 96.6001 48.4671C98.9001 49.7671 100.9 54.6671 103.8 56.3671C112.2 55.3671 112.6 60.3671 116.7 59.3671C120.9 58.3671 124 49.1671 130.1 43.4671C136.2 37.7671 143.3 25.6671 146.4 23.2671C149.4 20.8671 155.9 20.8671 160.3 18.5671C164.7 16.2671 170.1 6.86713 175.4 3.36713C180.7 -0.232866 185.8 2.06712 187.1 7.66712C188.4 13.2671 188.5 14.1671 191.1 15.7671C193.7 17.2671 201.6 25.2671 203.2 31.0671C204.7 36.8671 208.1 43.0672 209.8 45.7672C211 47.6672 215.1 50.9671 218.1 52.5671C219 53.0671 219.8 53.3671 220.5 53.3671C220.8 53.3671 221.1 53.3672 221.3 53.2672C223.2 52.1672 228.5 50.8671 232.4 50.8671C236.3 50.8671 241.5 57.2671 244.2 59.9671C246.9 62.6671 249.8 71.0671 250.5 72.0671C251.2 72.9671 253.8 73.5672 260.6 73.2672C267.3 72.8672 273.3 77.0671 275.2 81.0671C277.1 85.0671 280.5 91.6671 285.3 94.0671C290 96.4671 293.7 102.367 296.4 108.667C297.7 111.667 300.2 115.267 302.3 118.067C304.5 120.767 306.5 122.967 306.5 122.967Z" fill="#01D957"/>
<path d="M302.2 117.767C300.1 114.967 297.6 111.467 296.3 108.367C293.6 102.067 289.9 96.1672 285.2 93.7672C280.5 91.3671 277 84.7672 275.1 80.7672C273.2 76.7672 267.3 72.5671 260.5 72.9671C253.7 73.3671 251.1 72.7672 250.4 71.7672C249.7 70.8672 246.9 62.3671 244.1 59.6671C241.4 56.9671 236.2 50.5671 232.3 50.5671C228.4 50.5671 223.1 51.8671 221.2 52.9671C221 53.0671 220.7 53.0671 220.4 53.0671C220.4 53.3671 220.2 57.7671 217.6 61.4671C214.9 65.2671 213.9 67.3671 209.8 69.9671C205.8 72.4671 202.3 74.3671 201.6 79.0671C200.9 83.7671 200.8 83.7671 195.2 88.4671C189.8 93.0671 182.4 100.967 181.9 101.367C182.5 100.867 191.3 93.5671 195 91.6671C198.8 89.6671 203.7 85.2672 204 82.2672C204.3 79.2672 205 74.2671 211 71.0671C217 67.9671 220.3 63.7672 221.4 61.7672C222.5 59.7672 222.8 57.6671 223.9 57.0671C225 56.4671 229.4 54.6671 229.8 54.6671C230.2 54.6671 229.9 59.0671 229.1 60.4671C228.3 61.8671 228.4 63.2671 229.3 64.1671C230.2 65.0671 230.4 66.0671 230.7 66.1671C230.9 66.2671 233.4 64.6671 233.5 63.4671C233.5 62.2671 233.6 60.6671 233.6 60.6671C233.6 60.6671 233.9 62.7671 234.5 63.9671C235.1 65.0671 235.9 68.4671 235.2 69.9671C234.5 71.4671 233.4 72.2672 234.1 74.2672C234.8 76.2672 235.6 78.0671 235.6 78.0671C235.6 78.0671 232.7 76.3671 232.3 74.1671C231.9 72.0671 231.9 71.3671 232.7 70.3671C233.5 69.3671 232.9 68.4671 232.2 68.5671C231 68.7671 227.7 71.9671 224.7 72.0671C221.7 72.0671 219.4 70.5671 215.9 71.6671C212.4 72.7671 208.2 81.5671 208.2 81.5671C208.2 81.5671 214.7 74.3671 217 73.8671C219.3 73.4671 220.3 74.4672 221.5 74.7672C222.7 75.0672 225.6 73.6671 226.6 74.5671C225.3 76.0671 223.9 78.6671 222.3 80.1671C220.7 81.6671 219 82.9671 219.2 85.1671C219.4 87.6671 219.1 88.9671 218.2 90.5671C217.3 92.1671 213.7 97.7671 213.5 98.1671C213.9 97.8671 219.5 93.2672 220.3 89.7672C221.2 86.0672 222.2 83.6672 224.9 81.7672C227.6 79.8672 230.1 75.7672 230.1 75.7672C230.1 75.7672 232.3 82.2671 233.2 85.5671C233.4 86.0671 228.5 90.6671 228.5 90.6671L229.3 85.3671C229.3 85.3671 227.1 87.8671 225.4 90.8671C223.7 93.8671 224.9 93.8671 224.2 96.0671C223.4 98.2671 223.9 98.6671 223.1 100.167C222.3 101.567 218.7 105.167 218.3 105.567C218.7 105.367 225.1 102.667 226.1 99.1671C227.2 95.5671 229.8 94.0672 230.9 93.7672C232 93.3671 236.8 89.3671 237.4 83.2672C238.9 85.5672 238 89.2672 238 89.2672C238 89.2672 242.2 85.1672 240.5 81.2672C238.8 77.3672 237.2 77.3671 237.2 74.6671C237.2 71.9671 237.8 67.1671 237.8 67.1671C237.8 67.1671 238.2 71.3671 240.4 74.6671C242.6 77.9671 243.3 81.8671 246.3 82.4671C244 79.0671 243.7 71.8671 243.7 71.8671C243.7 71.8671 246.2 80.0671 250.2 81.6671V77.3671C250.2 77.3671 254 76.2672 255.8 76.7672C257.6 77.2672 262.6 80.1671 265.9 80.6671C263.6 82.4671 260.4 82.1671 258 85.8671C256 88.8671 255.4 90.0671 255.2 90.3671C255.6 89.6671 257.6 86.2671 261.2 85.5671C265.1 84.7671 267.2 83.8671 268.2 82.2672C269.5 84.6672 267.8 89.7671 267.5 94.9671C267.3 100.167 267.8 103.167 266.7 104.267C265.8 105.167 259 108.067 256.9 108.967C258.8 107.967 264.4 104.667 264.2 103.467C264 102.067 263.8 95.2672 263.4 95.2672C262.9 95.2672 247.8 103.767 243.7 103.367C244.4 105.367 244 106.867 242.4 107.667C240.8 108.467 241.4 110.167 239.7 111.167C238.1 112.167 233 116.767 230.5 116.767C236.4 118.167 240.3 114.767 241.4 113.567C242.5 112.267 244.2 110.967 246.1 111.767C248 112.567 252.8 114.567 257.2 113.367C261.6 112.167 263.3 112.267 264.8 110.767C266.3 109.267 268.2 108.067 268.8 108.567C269.3 109.067 267.5 111.667 265.6 113.267C263.7 114.867 262.6 116.367 260.9 117.467C259.1 118.567 257.9 119.167 257.9 119.667C258 120.067 266.9 119.667 267.8 119.667C268.7 119.667 270.6 119.067 271.1 116.767C271.5 114.467 271.5 113.267 271.5 113.267C271.5 113.267 272.5 115.667 273.1 116.967C273.7 118.267 273.4 120.067 273.4 120.067H296.8L300.7 122.567H304.7L302.2 117.767ZM278.2 112.467C277.4 108.567 277 107.367 273.5 105.967C270 104.567 271.5 100.567 271.7 93.2672C272.7 95.7672 273.7 103.067 275 103.667C276.3 104.267 280.8 104.567 280.8 108.567C280.8 112.467 282 118.167 282 118.167C282 118.167 279.1 116.367 278.2 112.467Z" fill="white"/>
<path d="M218.1 52.2672C218.1 52.5672 217.2 56.8671 216.9 57.1671C216.5 57.4671 213.7 60.8671 213.7 60.8671C212.9 58.5671 209.7 56.5671 208.2 56.1671C206.7 55.6671 204.7 54.2671 200.7 46.9671C204.8 60.7671 208.2 58.7671 208.3 60.1671C208.3 61.5671 208.7 66.5671 208.7 66.5671C208.7 66.5671 206.6 68.3672 204.7 69.2672C202.8 70.1672 200.5 72.1671 199.7 75.1671C198.9 78.1671 198.8 78.7672 196.7 82.2672C194.6 85.6672 189.1 88.0671 185.2 89.1671C181.1 92.7671 177.2 95.8671 175 97.6671C172.7 99.4671 174.1 100.967 170.5 104.367C166.9 107.867 159 108.567 154.3 112.367C155.9 109.267 166.6 102.367 167.1 101.367C167.6 100.367 166.7 100.167 166.9 96.0671C170.2 96.2671 172.5 91.8671 175.2 91.0671C177.9 90.2671 180.8 88.2671 182.7 80.6671C179.3 86.4671 173.8 88.5672 171.2 89.2672C168.6 90.0672 167.7 91.5671 165.1 91.9671C162.5 92.4671 159.4 94.4672 158.7 93.7672C158 93.0672 154.1 93.8671 154.1 93.8671C154.1 93.8671 165.7 86.8671 169.2 84.6671C172.7 82.4671 175.8 78.9671 175.4 75.1671C178.5 71.9671 184.1 63.6671 184.1 63.6671C184.1 63.6671 186.1 63.3671 187.1 61.4671C188 59.5671 192.3 52.6671 192.6 52.1671C192.2 52.5671 184.4 60.2671 183.5 60.3671C182.6 60.4671 181.3 58.6671 180.4 58.0671C179.5 57.4671 178 57.4671 174.1 60.8671C173.7 62.3671 172.3 64.8671 171.7 67.0671C171.1 69.1671 171.5 70.4671 170.1 72.6671C168.7 74.7671 163.5 76.0671 158 80.0671C160.8 75.0671 167.9 71.5671 167.8 70.1671C167.7 68.7671 167.8 66.9672 168.6 64.7672C169.4 62.5672 168.3 60.5671 169.8 58.8671C171.3 57.1671 172.4 56.0671 176.7 53.3671C173.8 49.9671 168.2 55.0671 161.7 55.0671C165.1 53.1671 166.7 44.8671 169.9 42.4671C173 40.0671 179 33.5671 179 33.5671C179 33.5671 179.2 37.7671 178.5 39.9671C177.8 42.1671 168.4 49.8671 168.4 50.0671C168.3 50.2671 182 42.6671 181.8 39.8671C181.6 37.0671 182.8 33.6671 183.9 28.7671C185.1 23.7671 183.3 18.6671 183.3 18.6671C183.3 18.6671 182.6 25.0671 181.5 26.3671C180.4 27.6671 175.7 29.0671 171 34.3671C171.8 27.8671 177.3 21.9671 178.6 19.6671C179.9 17.3671 180.4 12.3671 178.6 7.16712C174.6 8.06712 168.1 21.4671 160.7 23.6671C153.4 25.7671 146.7 29.6671 146.7 29.6671C146.7 29.6671 138.4 43.1671 134.7 45.9671C131 48.7671 125.9 58.1671 123.3 60.6671C120.7 63.1671 116.8 64.0671 117.1 65.0671C117.5 65.9671 116.5 69.7671 114.8 71.6671C113.1 73.5671 108 76.0671 105.9 77.4671C103.7 78.8671 103.8 79.5671 101.4 83.5671C98.9 87.5671 87.4 93.5671 87.4 93.5671L95.1 85.2672H93.1C93.1 85.2672 98.1 79.5672 97.2 78.7672C96.2 77.9672 93.6 79.4671 89.9 80.8671C86.2 82.2671 83.7 83.8671 83.7 83.8671C83.7 83.8671 83.5 84.6671 83.2 86.4671C83 88.2671 79.2 90.8671 74.8 93.8671C70.4 96.8671 66.2 97.6671 62.3 102.167C63.1 98.9671 66.4 92.4671 70.3 90.8671C74.1 89.2671 77.3 85.5671 77.3 85.5671C77.3 85.5671 76.8 83.5671 78.2 80.9671C79.6 78.4671 84.7 77.6671 85.8 75.8671C86.9 74.0671 90.4 69.3671 95.9 63.4671C91.9 65.5671 85 65.5671 85 65.5671C85 65.5671 91 56.5671 89.3 55.8671C87.6 55.2671 85.8 58.1671 83.3 60.8671C80.9 63.6671 73.9 69.0671 72.5 69.9671C71.1 70.8671 70.1 73.7671 66.5 77.4671C62.8 81.0671 56.3 82.6671 54.8 83.3671C53.3 84.0671 43.3 93.5671 39 99.9671C34.7 106.367 26 113.067 17 116.867C17 116.867 26.6 107.167 34.4 99.9671C42 92.9671 48.1 80.2671 48.5 79.4671C50.1 77.8671 51.3 76.9671 51.8 76.8671C55.4 76.0671 60.8 74.7671 65.3 70.6671C69.8 66.5671 81.4 52.0671 84.8 50.3671C88.2 48.6671 94.7 46.7671 97 47.9671C99.3 49.2671 101.3 54.1671 104.2 55.8671C112.6 54.8671 113 59.8671 117.1 58.8671C121.3 57.8671 124.4 48.6671 130.5 42.9671C136.6 37.2671 143.7 25.1671 146.8 22.7671C149.8 20.3671 156.3 20.3671 160.7 18.0671C165.1 15.7671 170.5 6.36713 175.8 2.86713C181.1 -0.732866 186.2 1.56712 187.5 7.16712C188.8 12.7671 188.9 13.6671 191.5 15.2671C194.1 16.7671 202 24.7671 203.6 30.5671C205.1 36.3671 208.5 42.5672 210.2 45.2672C211 47.3672 215.1 50.7672 218.1 52.2672Z" fill="white"/>
<path d="M306.5 124.767H2.70008C1.80008 124.767 1.10006 124.167 0.900058 123.267C0.700058 122.367 1.20006 121.567 2.00006 121.267C8.90006 118.467 24.3001 102.167 35.6001 90.2672C40.1001 85.4672 44.0001 81.3672 46.7001 78.7672L46.8001 78.6672C49.3001 76.2672 50.2001 75.7672 51.0001 75.5672C55.3001 74.6672 59.8001 73.2672 63.7001 69.7672C65.4001 68.1672 68.3001 64.8671 71.4001 61.4672C77.3001 54.7672 81.4001 50.2672 83.6001 49.2672C86.1001 48.0672 94.0001 44.9672 97.5001 46.9672C98.9001 47.7672 100.1 49.3672 101.3 51.0672C102.3 52.4672 103.3 53.8672 104.3 54.5672C109.3 54.0672 111.7 55.6672 113.5 56.8672C114.8 57.6672 115.3 57.9672 116.3 57.7672C117.9 57.3672 119.8 54.4672 121.8 51.4672C123.8 48.4672 126 45.0672 129 42.3672C132.3 39.2672 136.1 34.0672 139.1 29.8672C141.7 26.2672 143.8 23.3672 145.3 22.1672C147.2 20.5672 150.1 19.9672 153.1 19.2672C155.4 18.7672 157.7 18.1672 159.5 17.2672C161.4 16.2672 163.9 13.2672 166.3 10.3672C168.9 7.26718 171.6 3.96719 174.4 2.06719C177.5 -0.0328124 180.7 -0.532813 183.5 0.567187C186.2 1.66719 188.1 4.16718 188.9 7.36718L189 7.76717C190.2 13.0672 190.3 13.2672 192.1 14.2672C195.1 16.0672 203.3 24.2672 205 30.6672C206.5 36.4672 209.9 42.4672 211.4 44.8672C212.4 46.3672 216.2 49.5672 219.1 50.9672C220.1 51.4672 220.6 51.5672 220.7 51.5672C223 50.3672 228.4 49.0672 232.5 49.0672C236.5 49.0672 240.9 53.6672 244.1 57.0672C244.7 57.6672 245.2 58.2672 245.6 58.6672C247.7 60.7672 249.8 65.5672 251.1 68.7672C251.5 69.5672 251.9 70.5671 252 70.9671C252.3 71.1671 253.9 71.7672 260.5 71.4671C267.9 71.0671 274.6 75.6672 276.8 80.3672C278 82.7672 281.5 90.2672 286 92.5672C290.5 94.7672 294.5 99.9672 298 108.067C299 110.467 300.9 113.467 303.7 117.067C305.9 119.967 307.8 122.067 307.9 122.167C308.4 122.667 308.5 123.467 308.2 124.167C307.8 124.367 307.2 124.767 306.5 124.767ZM9.00006 121.167H302.5C302 120.467 301.3 119.767 300.7 118.867C297.8 115.067 295.7 111.767 294.6 109.067C291.5 101.867 288 97.2672 284.3 95.3672C279.2 92.8672 275.6 86.2672 273.4 81.4671C271.8 77.9671 266.4 74.3672 260.6 74.6672C252.5 75.0672 250.1 74.1672 249 72.7672C248.7 72.2672 248.3 71.5672 247.6 69.7672C246.5 67.0672 244.5 62.4672 242.9 60.8672C242.4 60.3672 241.9 59.7672 241.3 59.1672C239 56.7672 234.8 52.2672 232.4 52.2672C228.7 52.2672 223.7 53.5672 222.2 54.3672C221.7 54.6672 221.1 54.7672 220.4 54.6672C219.6 54.5672 218.6 54.2672 217.4 53.6672C214.1 51.9672 209.8 48.4672 208.4 46.2672C206.7 43.7672 203.2 37.2672 201.5 31.0672C200.1 25.7672 192.5 18.1672 190.3 16.8672C187.1 14.9672 186.7 13.3672 185.5 7.96718L185.4 7.56719C184.9 5.46719 183.8 3.96717 182.2 3.26717C180.5 2.56717 178.5 2.96718 176.5 4.36718C174.1 5.96718 171.6 8.96718 169.2 11.9672C166.5 15.2672 163.9 18.3672 161.3 19.7672C159.1 20.9672 156.5 21.5672 154 22.0672C151.4 22.6672 149 23.2672 147.7 24.2672C146.6 25.1672 144.4 28.1672 142.2 31.2672C138.9 35.8672 135.2 41.0672 131.6 44.3672C129 46.7672 126.9 49.9672 125 52.8672C122.5 56.6672 120.4 59.9672 117.4 60.6672C114.8 61.2672 113.2 60.2672 111.8 59.3672C110.1 58.2672 108.4 57.2672 104.3 57.7672C103.9 57.7672 103.5 57.7672 103.2 57.5672C101.3 56.4672 99.9001 54.4672 98.6001 52.6672C97.7001 51.4672 96.8001 50.0672 96.0001 49.6672C94.7001 48.9672 89.2001 50.2672 85.4001 52.0672C83.7001 52.8672 78.3 58.9672 74.3 63.4672C71.2001 66.9671 68.2001 70.3672 66.3 72.0672C61.2001 76.6672 55.1001 78.0672 52.1001 78.6672C51.9001 78.7672 51.3001 79.1672 49.6001 80.7672L49.5001 80.8672C46.8001 83.3672 42.9001 87.5672 38.4001 92.3672C28.6001 102.867 17.2001 114.967 9.00006 121.167Z" fill="#01D957"/>
<path d="M103.5 53.7671C104.4 54.6671 105 55.867 105.7 56.967L107.7 60.2671C109 62.4671 110.3 64.667 111.6 66.967C109.7 65.167 107.9 63.4671 106 61.6671L103.3 58.967C102.4 58.067 101.4 57.2671 100.7 56.1671L103.5 53.7671Z" fill="#01D957"/>
<path d="M189 7.76709C189.6 10.0671 190 12.3671 190 14.7671C190 15.3671 190 15.9671 190 16.5671V18.0671C190 18.1671 190.1 18.6671 190.3 19.1671C190.5 19.6671 190.7 20.1671 191 20.6671L192.6 23.7671C193.1 24.8671 193.5 25.9671 193.9 27.0671C194.7 29.2671 195.3 31.6671 195.5 33.9671C194.7 31.7671 193.7 29.6671 192.5 27.7671C191.4 25.7671 190 23.9671 188.7 21.9671C188.4 21.4671 188 20.9671 187.7 20.4671C187.4 19.9671 187 19.3671 186.8 18.5671L186.7 18.2671V18.0671L186.6 17.6671L186.5 16.7671L186.3 15.0671C186 12.7671 185.6 10.5671 185.2 8.3671L189 7.76709Z" fill="#01D957"/>
<path d="M279.9 85.8672C280.5 87.3672 281.2 88.7672 281.7 90.2672C282.3 91.7672 282.8 93.2672 283.3 94.7672C283.8 96.2672 284.3 97.7672 284.8 99.3672C285.3 100.867 285.6 102.467 285.9 104.067L276.6 87.2672L279.9 85.8672Z" fill="#01D957"/>
<path d="M299.8 124.167C298.4 122.867 297.1 121.467 295.9 120.167C294.7 118.867 293.4 117.567 292.2 117.267C292.2 117.267 291.4 117.067 291.1 116.867C290.8 116.667 290.5 116.467 290.3 116.267C289.9 115.867 289.5 115.467 289.2 114.967C288.6 114.167 288.1 113.267 287.6 112.367C286.7 110.667 285.9 108.867 285.2 106.967C286.4 108.467 287.7 109.967 289 111.367C289.6 112.067 290.3 112.767 291 113.367C291.7 113.967 292.4 114.467 292.6 114.267C293.9 114.367 295.1 114.867 296 115.467C297 116.067 297.8 116.667 298.5 117.367C300 118.667 301.3 120.167 302.5 121.767L299.8 124.167Z" fill="#01D957"/>
<path d="M63 88.6672C58.9 91.7672 56.1 95.1673 53.9 100.067C51.7 104.867 36.4 111.767 36.4 111.767C36.4 111.767 46.4 104.067 49.7 101.067C53 97.9673 52.1 93.9672 63 88.6672Z" fill="white"/>
<path d="M88.9001 110.267C94.9001 105.767 97.8001 101.467 99.6001 98.5672C101.4 95.5672 107 90.7672 108.7 86.8672C103.3 91.5672 100 92.8672 98.0001 95.7672C96.0001 98.6672 95.0001 99.6672 93.0001 100.067C91.0001 100.467 89.4001 97.6672 81.2001 111.567C85.0001 107.267 92.4001 102.567 92.4001 102.567C92.4001 102.567 90.9001 108.167 88.9001 110.267Z" fill="white"/>
<path d="M123.5 79.1672C118.8 83.8672 114.1 88.4672 114.1 90.3672C114.1 92.2672 115.3 91.8672 115.8 92.3672C116.2 92.7672 110.7 100.367 110.7 100.367C110.7 100.367 117.5 94.9673 118.5 92.5673C119.4 90.1673 117.5 90.8672 117.5 89.9672C117.4 88.9672 123.5 79.1672 123.5 79.1672Z" fill="white"/>
<path d="M129.1 65.4672C133.6 62.1672 139.1 58.0672 140.3 58.1672C141.5 58.2672 140.7 61.5672 139.2 63.2672C137.8 64.9672 130.4 77.0672 130.4 77.0672C130.4 77.0672 139 68.2672 141.5 65.1672C144 62.1672 143.1 60.0672 144.1 58.9672C145 57.7672 148.7 55.8672 151.2 50.9672C153.7 45.9672 154.9 39.5672 157.8 36.8672C152.9 40.9672 150.2 45.0672 148.4 48.3672C146.6 51.7672 142.4 53.9672 139.6 54.4672C136.7 54.9672 134.9 55.5672 133.6 58.1672C132.3 60.6672 129.1 65.4672 129.1 65.4672Z" fill="white"/>
<path d="M249.9 85.4673C246.9 88.5673 244.8 91.1673 244.8 91.7673C244.9 92.3673 246.3 93.5673 245.5 94.8673C244.7 96.1673 235.4 103.167 235.6 103.067C235.8 102.967 242.6 95.4673 243.2 94.4673C243.8 93.5673 242 91.7673 242.4 91.0673C242.8 90.3673 249.9 85.4673 249.9 85.4673Z" fill="white"/>
<path d="M210 89.3672C206.6 94.3672 205.1 96.9672 205.1 99.3672C205.1 101.767 204.4 104.267 201.3 106.367C198.2 108.567 192.4 113.067 192.4 113.067C192.4 113.067 195.7 109.367 196.5 107.367C197.4 105.367 199.5 105.067 200.5 103.167C201.6 101.267 200.6 99.7672 201.8 97.7672C203 95.6672 210 89.3672 210 89.3672Z" fill="white"/>
</svg>
