<svg width="82" height="61" viewBox="0 0 82 61" fill="none" xmlns="http://www.w3.org/2000/svg">
<path d="M44.161 4.48526C44.568 4.70145 45.0024 4.86133 45.4524 4.96051C45.1789 5.00399 44.9094 5.06999 44.6467 5.15785C45.1759 5.26878 45.7198 5.36758 46.2676 5.445C45.983 5.50004 45.6987 5.555 45.3616 5.60594C45.8306 5.72238 46.2628 5.81729 46.6934 5.8935C46.5065 5.95987 46.3156 6.01461 46.1219 6.05739C46.7941 6.13625 47.4513 6.31136 48.0736 6.57735C48.6823 6.94865 49.3576 7.19752 50.0617 7.30999L50.7415 7.41965L50.7146 7.44472C50.5057 7.61237 50.3321 7.8199 50.2042 8.05523C50.1784 8.09555 50.1627 8.14151 50.1584 8.18919C50.1542 8.23687 50.1615 8.28488 50.1798 8.32912C50.1966 8.36342 50.2214 8.39322 50.252 8.41605C50.2103 8.45448 50.1781 8.50215 50.1581 8.55525C50.138 8.60836 50.1307 8.66541 50.1367 8.72185C50.1459 8.75193 50.1619 8.7795 50.1834 8.80241C50.205 8.82532 50.2315 8.84296 50.261 8.85396C50.2341 8.89868 50.2174 8.94879 50.2121 9.00072C50.2068 9.05264 50.213 9.10509 50.2304 9.15433C50.2485 9.18867 50.2744 9.21828 50.3061 9.24082C50.3377 9.26335 50.3742 9.27817 50.4126 9.2841C50.396 9.33991 50.3921 9.39872 50.4011 9.45623C50.4102 9.51374 50.432 9.5685 50.465 9.6165C50.4993 9.65251 50.5418 9.67974 50.5889 9.69589C50.636 9.71205 50.6862 9.71666 50.7354 9.70934C50.7303 9.75531 50.7356 9.80186 50.7509 9.84553C50.7661 9.88919 50.7911 9.92885 50.8238 9.96157C50.8745 9.99632 50.9336 10.0168 50.9949 10.021C51.0563 10.0251 51.1176 10.0128 51.1725 9.98517C51.1817 10.0182 51.1978 10.049 51.2197 10.0753C51.2416 10.1017 51.2689 10.1231 51.2997 10.1382C51.347 10.153 51.3973 10.1551 51.4457 10.1444C51.4941 10.1337 51.5388 10.1105 51.5755 10.0771C51.6075 10.1015 51.645 10.1177 51.6847 10.1243C51.7555 10.1279 51.8261 10.1159 51.8917 10.0892C51.9573 10.0626 52.0163 10.0219 52.0645 9.96995C52.1159 9.98878 52.1713 9.9943 52.2255 9.98597C52.3563 9.95827 52.472 9.88273 52.55 9.77415C52.5612 9.77668 52.5726 9.77816 52.5841 9.77858C52.7055 9.7828 52.8513 9.67495 53.0292 9.44913C53.1236 9.4384 53.328 9.37432 53.502 9.04125C53.6202 9.03649 53.8584 8.96577 53.9686 8.49971C54.0189 8.28302 54.0488 8.06211 54.058 7.83986C54.2472 7.6599 54.4237 7.46713 54.5865 7.26293C54.7612 7.02988 55.0068 6.85982 55.2865 6.7783C55.6696 6.66293 56.0405 6.51043 56.3939 6.32297C57.1635 5.94393 57.8815 5.46807 58.5304 4.90695C58.7671 4.70144 59.0125 4.47059 59.2739 4.20561C59.6084 3.85706 59.9059 3.4748 60.1616 3.06496C60.4444 2.85835 60.7095 2.62875 60.9545 2.3785C60.7903 2.43125 60.6302 2.49611 60.4755 2.57256C60.7883 2.35691 61.069 2.09816 61.3094 1.80399C61.132 1.88606 60.9603 1.98005 60.7956 2.08531C61.159 1.80366 61.4916 1.48444 61.788 1.13295C61.5101 1.23087 61.246 1.36417 61.0022 1.52956C61.3072 1.25342 61.5919 0.955708 61.8542 0.638732C61.6042 0.678831 61.367 0.776596 61.1613 0.924281C61.4038 0.673414 61.5534 0.347377 61.5855 0C61.111 0.598021 60.579 1.14801 59.997 1.64204C59.3968 2.06978 58.7423 2.41573 58.0508 2.67075C57.7168 2.80421 57.3826 2.93505 57.0488 3.0671C56.9064 3.12348 56.7639 3.17978 56.6213 3.23602C56.5745 3.25445 56.3673 3.30171 56.3442 3.34515C56.4234 3.20357 56.5397 3.08624 56.6806 3.00577L56.7386 2.97072L56.7158 2.90697C56.6884 2.83428 56.6455 2.76842 56.5902 2.71392C56.5348 2.65942 56.4683 2.61759 56.3951 2.59132C56.2998 2.57143 56.2013 2.57369 56.107 2.59795C56.0127 2.62221 55.9253 2.6678 55.8514 2.73122C55.7782 2.69164 55.6951 2.67413 55.6121 2.68081C55.5268 2.69323 55.445 2.72273 55.3714 2.76753C55.2978 2.81234 55.234 2.87152 55.1838 2.94156C55.1101 3.0299 55.0367 3.12549 54.9657 3.21806C54.719 3.53967 54.4639 3.87207 54.1592 3.94513C54.1077 3.9574 54.0616 3.96953 54.0188 3.98079C53.2821 4.17431 52.6338 3.57077 51.9848 3.31431C51.6361 3.16722 51.2601 3.09646 50.8818 3.10679C50.2406 3.21999 49.6064 3.36972 48.9823 3.55522C48.3377 3.66388 47.687 3.68988 47.0399 3.76509C46.6646 3.80873 46.2889 3.84412 45.9122 3.86771C45.6246 3.88581 45.3366 3.89647 45.0481 3.89969C44.7284 3.89953 44.4091 3.87661 44.0927 3.83112C43.9417 3.81074 43.7914 3.78527 43.6424 3.75329C43.5023 3.74111 43.3652 3.7058 43.2367 3.64879C43.7921 4.01703 44.4109 4.27937 45.0617 4.42259C44.7615 4.4435 44.4613 4.4644 44.161 4.48526Z" fill="#3F3F3F"/>
<path d="M30.0715 4.58613C29.8614 4.49443 29.6513 4.40271 29.4412 4.31097C29.6419 4.59083 29.8789 4.84275 30.1461 5.0601C29.9459 4.99185 29.7407 4.93921 29.5323 4.90265C29.8507 5.15703 30.1832 5.40886 30.526 5.64869C30.3144 5.58388 30.103 5.51912 29.8574 5.43339C30.1332 5.67021 30.3916 5.88055 30.6556 6.07876C30.506 6.05521 30.3578 6.02296 30.2119 5.98217C30.6352 6.26373 31.0172 6.6028 31.347 6.98963C31.6318 7.43979 31.9999 7.83143 32.4316 8.1435L32.8521 8.44962L32.8252 8.45592C32.6271 8.48739 32.437 8.557 32.2654 8.6609C32.2343 8.67639 32.2077 8.69949 32.188 8.72806C32.1682 8.75662 32.156 8.78971 32.1525 8.82425C32.1519 8.85195 32.1582 8.87937 32.1707 8.90409C32.0962 8.92969 32.0029 8.97688 31.9852 9.05571C31.9809 9.07822 31.982 9.10142 31.9886 9.12339C31.9951 9.14536 32.0067 9.16545 32.0226 9.18199C31.9892 9.1999 31.9605 9.22527 31.9385 9.25611C31.9166 9.28696 31.9021 9.32245 31.8962 9.35983C31.8967 9.3884 31.9039 9.41644 31.9174 9.44165C31.9308 9.46687 31.9501 9.48853 31.9735 9.50488C31.9429 9.53352 31.9195 9.56903 31.9053 9.60848C31.8911 9.64793 31.8865 9.69019 31.8918 9.73178C31.9031 9.76721 31.9225 9.79949 31.9485 9.82602C31.9746 9.85255 32.0065 9.87257 32.0417 9.88447C32.0221 9.91137 32.0092 9.94257 32.0042 9.97548C31.9991 10.0084 32.002 10.042 32.0127 10.0736C32.0421 10.1437 32.1168 10.1887 32.2399 10.2101C32.2345 10.2344 32.2346 10.2596 32.2401 10.2839C32.2456 10.3082 32.2565 10.3309 32.2719 10.3505C32.2991 10.3765 32.3323 10.3954 32.3685 10.4055C32.4048 10.4156 32.4429 10.4166 32.4797 10.4085C32.493 10.4354 32.5126 10.4586 32.5368 10.4762C32.5834 10.5032 32.635 10.5203 32.6885 10.5264C32.742 10.5325 32.7961 10.5276 32.8476 10.5119C32.8761 10.542 32.9115 10.5647 32.9507 10.5782C33.0479 10.6065 33.1519 10.5995 33.2445 10.5585C33.2512 10.5641 33.2583 10.569 33.2659 10.5732C33.3464 10.6182 33.4828 10.6014 33.6826 10.5218C33.7614 10.5448 33.8446 10.5486 33.9252 10.5328C34.0057 10.5169 34.0813 10.482 34.1455 10.4308C34.227 10.4691 34.4127 10.5079 34.6512 10.2539C34.7611 10.1361 34.8591 10.0078 34.944 9.87093C35.1345 9.82424 35.3216 9.7649 35.5041 9.6933C35.7074 9.6078 35.932 9.58692 36.1475 9.63351C36.4465 9.69484 36.7505 9.72859 37.0557 9.73432C37.7063 9.76532 38.3583 9.71733 38.9973 9.59142C39.2295 9.5451 39.4765 9.48584 39.7464 9.41084C40.093 9.30965 40.4285 9.1736 40.7476 9.00477C41.0103 8.97404 41.2702 8.92254 41.5248 8.85073C41.3954 8.82655 41.2645 8.81139 41.133 8.80535C41.4183 8.77962 41.6988 8.71528 41.9668 8.61411C41.8184 8.60369 41.6694 8.60275 41.5208 8.6113C41.8636 8.56183 42.2005 8.47763 42.5263 8.36C42.3047 8.32447 42.0796 8.31594 41.8559 8.3346C42.158 8.26814 42.4551 8.18072 42.745 8.07298C42.5624 8.0109 42.3684 7.98951 42.1766 8.01031C42.4241 7.94074 42.6401 7.78822 42.7885 7.5783C42.2544 7.78888 41.7016 7.94828 41.1374 8.05434C40.5793 8.11325 40.0161 8.10192 39.4609 8.02063C39.1882 7.98778 38.9164 7.95326 38.6446 7.91961C38.5285 7.9052 38.4124 7.89077 38.2964 7.87631C38.2583 7.87162 38.1016 7.82899 38.0708 7.84816C38.176 7.78639 38.2956 7.75343 38.4175 7.75257L38.4689 7.75076L38.4761 7.70284C38.483 7.64656 38.477 7.58946 38.4588 7.53578C38.4405 7.48211 38.4104 7.43325 38.3706 7.39282C38.3126 7.34687 38.2454 7.31397 38.1735 7.29636C38.1016 7.27875 38.0268 7.27686 37.9541 7.2908C37.9179 7.23977 37.868 7.19991 37.8103 7.17571C37.6862 7.13128 37.5497 7.13635 37.4292 7.18985C37.3483 7.21948 37.2651 7.25394 37.1846 7.28718C36.941 7.42373 36.6622 7.4846 36.3838 7.462C36.3447 7.45174 36.3092 7.44323 36.2764 7.43539C35.7108 7.29965 35.4854 6.69457 35.1374 6.30707C34.9511 6.09112 34.7225 5.91576 34.4656 5.79187C33.9925 5.63906 33.5116 5.51168 33.0249 5.41027C32.5512 5.25348 32.1026 5.04261 31.6391 4.8639C31.3703 4.76034 31.104 4.65135 30.8414 4.53472C30.6407 4.4457 30.4424 4.35184 30.2464 4.25312C30.0311 4.14178 29.8236 4.01599 29.6254 3.87661C29.5307 3.81119 29.4381 3.74269 29.3487 3.67063C29.2591 3.61467 29.179 3.54472 29.1115 3.46344C29.3607 3.89286 29.686 4.2733 30.0715 4.58613Z" fill="#3F3F3F"/>
<path d="M73.2058 52.7579C71.3002 52.7051 68.578 52.5928 65.3113 52.524C62.0446 52.4444 58.2334 52.3783 54.15 52.3353C52.1083 52.3196 49.9986 52.2832 47.8548 52.2829C45.711 52.276 43.5331 52.269 41.3554 52.2621C39.1776 52.2692 36.9997 52.2764 34.856 52.2835C32.7122 52.286 30.6025 52.3206 28.5608 52.3367C26.519 52.3654 24.5454 52.3932 22.6739 52.4196C20.8023 52.4572 19.0328 52.4928 17.3995 52.5256C14.1328 52.595 11.4105 52.7058 9.50488 52.7585C8.55211 52.7845 7.80352 52.8256 7.29308 52.8445C6.78265 52.8663 6.51044 52.8778 6.51044 52.8778C6.51044 52.8778 6.78265 52.8893 7.29308 52.911C7.80352 52.9299 8.55211 52.9712 9.50488 52.9971C11.4105 53.0499 14.1328 53.1606 17.3995 53.23C19.0328 53.2628 20.8023 53.2984 22.6739 53.336C24.5454 53.3624 26.519 53.3902 28.5608 53.4189C30.6025 53.4351 32.7122 53.4695 34.856 53.4721C36.9997 53.4792 39.1776 53.4864 41.3554 53.4936C43.5331 53.4866 45.711 53.4796 47.8548 53.4727C49.9986 53.4725 52.1083 53.4361 54.15 53.4203C58.2334 53.3774 62.0446 53.3112 65.3113 53.2316C68.578 53.1628 71.3002 53.0506 73.2058 52.9977C74.1586 52.9716 74.9073 52.9305 75.4177 52.9113L76.2003 52.8778C76.2003 52.8778 75.9281 52.8662 75.4177 52.8443C74.9073 52.8252 74.1586 52.784 73.2058 52.7579Z" fill="#01D957"/>
<path d="M43.219 12.3864C43.0081 12.3908 42.8011 12.4444 42.6147 12.5431C42.4282 12.6418 42.2674 12.7828 42.1452 12.9548C40.2609 15.5702 38.3766 18.1855 36.4922 20.8009C36.3804 20.956 36.2686 21.1113 36.1567 21.2665C35.8266 20.9072 35.4955 20.5493 35.1662 20.1892C33.6739 18.5573 32.1949 16.886 30.7932 15.1191C30.5637 14.8297 30.3368 14.5383 30.1125 14.2448C29.8861 13.9485 29.6628 13.65 29.4424 13.3492C29.2211 13.0469 29.003 12.7422 28.7883 12.4351C28.5725 12.1263 28.3603 11.8149 28.1518 11.501C27.942 11.1852 27.7363 10.8667 27.5346 10.5455C27.4332 10.3841 27.3329 10.222 27.2337 10.0593C27.1346 9.89658 27.0447 9.72479 26.9383 9.56693C26.8867 9.49018 26.843 9.4082 26.786 9.3342C26.7268 9.25645 26.6589 9.18568 26.5837 9.12326C26.4411 9.00321 26.2681 8.9248 26.0838 8.89663C25.931 8.88228 25.7769 8.904 25.634 8.96003C25.4911 9.01606 25.3633 9.10485 25.261 9.21924C23.6553 10.9329 21.9637 12.5232 20.234 14.0588C19.3692 14.8267 18.4949 15.5808 17.617 16.33C15.8612 17.8283 14.0912 19.3064 12.355 20.8332C9.69267 23.1158 7.21052 25.6005 4.93061 28.265C3.31766 30.195 1.67413 32.0797 0 33.9192H81.9347C79.1825 30.8114 76.274 27.8456 73.2205 25.0334C72.5954 24.467 71.9654 23.9106 71.3305 23.3643C70.0604 22.2735 68.7695 21.2292 67.4537 20.2516C65.5241 18.8007 63.4844 17.5023 61.3531 16.3682C60.8957 16.1283 60.4335 15.8982 59.9662 15.6779C59.5018 15.4591 59.0326 15.251 58.5585 15.0537C58.3145 14.9523 58.0689 14.8551 57.8227 14.7593C57.5843 14.6666 57.3505 14.5512 57.1042 14.4823C56.82 14.4204 56.5234 14.452 56.2586 14.5722C56.1181 14.6382 55.9943 14.735 55.8965 14.8556C54.5685 16.5639 53.2041 18.2166 51.8033 19.8137C51.4289 19.4491 51.053 19.0861 50.6754 18.7247C50.2982 18.3636 49.9194 18.0041 49.539 17.6464C49.1589 17.2888 48.7773 16.933 48.3941 16.5788C48.0111 16.2249 47.6266 15.8727 47.2405 15.5223C46.8547 15.1721 46.4673 14.8237 46.0784 14.4771C45.6897 14.1307 45.2995 13.7861 44.9077 13.4433C44.7158 13.2754 44.5235 13.108 44.3309 12.941C44.1928 12.778 44.0231 12.6448 43.832 12.5494C43.6408 12.4541 43.4323 12.3986 43.219 12.3864ZM55.8283 16.3606L58.1965 18.3763L56.4172 15.6203C56.4261 15.6086 56.435 15.598 56.4441 15.5865C56.4845 15.543 56.5335 15.5084 56.588 15.4847C56.6425 15.461 56.7013 15.4489 56.7606 15.449C56.7931 15.4484 56.8255 15.4533 56.8563 15.4635C59.8176 16.5613 62.6262 18.0333 65.214 19.8437C64.9757 20.158 64.7362 20.4705 64.5072 20.7965L63.8384 20.1931L64.0039 21.0701C63.3574 20.9448 62.7314 20.73 62.144 20.4319C62.0292 20.38 61.9104 20.3374 61.7887 20.3046L57.2378 16.0794L60.1931 19.7602L59.1584 19.2088L60.0873 20.4169C58.6929 20.7178 57.3094 21.1001 55.9354 21.5315C54.4674 21.9924 53.0092 22.5039 51.5504 23.0121C51.3106 23.0957 51.0703 23.1769 50.8305 23.2601L53.4024 20.4845L49.7337 23.3947C51.7357 21.3178 53.7673 18.9731 55.8283 16.3606ZM38.2156 20.0427L42.7676 13.7246C42.815 13.6651 42.8738 13.6155 42.9405 13.5789C43.0073 13.5422 43.0806 13.5192 43.1563 13.5111C43.232 13.503 43.3086 13.51 43.3815 13.5318C43.4545 13.5535 43.5224 13.5895 43.5813 13.6377L42.182 20.7756L44.3498 14.3127C45.5803 15.3876 46.7982 16.4819 48.0035 17.5956C47.9701 17.5783 47.937 17.5618 47.9036 17.5442C47.2585 17.2106 46.6264 16.81 46.6264 16.81C46.6264 16.81 47.1191 17.464 47.6539 18.075C47.8765 18.3332 48.1037 18.58 48.2955 18.7831C47.6436 19.2954 47.0214 19.8443 46.4317 20.4271C45.0853 21.8302 44.0166 23.8469 42.1859 24.2099C41.6032 24.3159 41.0024 24.257 40.4514 24.0396L43.0206 15.0442L39.7407 23.7009C39.0989 23.324 38.5095 22.8643 37.9878 22.3335C37.8796 22.2259 37.7725 22.1131 37.6653 22.0031L39.9348 18.7077L38.2156 20.0427ZM25.5694 8.99181C25.4549 9.04868 25.3513 9.1251 25.263 9.21763C25.3513 9.1251 25.4549 9.04868 25.5694 8.99181ZM16.4907 18.5075C19.2854 16.1376 22.1532 13.6802 24.8163 10.9636L26.0447 18.5722L25.6332 10.1362C25.6728 10.0941 25.715 10.0553 25.7544 10.0132C25.7819 9.98083 25.8158 9.95467 25.854 9.93637C25.8923 9.91807 25.9339 9.90805 25.9763 9.90697C26.0371 9.91078 26.0958 9.93058 26.1464 9.96438C26.1971 9.99817 26.2379 10.0448 26.2647 10.0994C28.3164 13.4739 30.6973 16.6369 33.3724 19.542C32.0001 20.7498 30.6021 21.9193 29.1875 23.0011L28.4226 19.9677L28.5345 22.2566L26.1491 11.6382L26.9796 24.1163C22.4118 22.3113 17.4554 23.5641 12.7835 24.9706C11.7304 25.2876 10.6815 25.6283 9.63044 25.9572L16.9536 19.3273L8.87273 25.3312C11.3235 22.898 13.9344 20.6751 16.4907 18.5075ZM73.2058 31.8175C71.3002 31.8507 68.5779 31.9323 65.3113 31.9687C62.0446 32.0024 58.2333 32.0803 54.1499 32.0939C50.0665 32.1112 45.711 32.1295 41.3553 32.1478C36.9996 32.1293 32.6442 32.1107 28.5607 32.0933C24.4773 32.0776 20.6662 32.0018 17.3995 31.9678C14.1327 31.9306 11.4104 31.8503 9.50483 31.8171C7.59929 31.7665 6.51038 31.7376 6.51038 31.7376C6.51038 31.7376 7.59929 31.7086 9.50483 31.658C11.4104 31.6249 14.1327 31.5446 17.3995 31.5073C20.6662 31.4734 24.4773 31.3976 28.5607 31.3819C32.6442 31.3644 36.9996 31.3459 41.3553 31.3273C45.711 31.3457 50.0665 31.364 54.1499 31.3813C58.2333 31.3949 62.0446 31.4728 65.3113 31.5064C68.5779 31.5429 71.3002 31.6245 73.2058 31.6576C75.1114 31.7085 76.2002 31.7376 76.2002 31.7376C76.2002 31.7376 75.1114 31.7667 73.2058 31.8175Z" fill="#01D957"/>
<path d="M1.01642 49.0077H8.91969V46.969H3.48905V44.1766H8.49141V42.138H3.48905V39.3513H8.89685V37.3127H1.01642V49.0077Z" fill="#3F3F3F"/>
<path d="M14.5032 37.3127H11.7565L15.7938 49.0077H18.9802L23.0118 37.3127H20.2708L17.4384 46.1981H17.3299L14.5032 37.3127Z" fill="#3F3F3F"/>
<path d="M25.9471 49.0077H33.8504V46.969H28.4197V44.1766H33.4221V42.138H28.4197V39.3513H33.8275V37.3127H25.9471V49.0077Z" fill="#3F3F3F"/>
<path d="M37.321 49.0077H39.7936V44.8619H41.5981L43.8138 49.0077H46.5434L44.0593 44.4622C45.3899 43.8911 46.1265 42.7319 46.1265 41.133C46.1265 38.8088 44.5904 37.3127 41.9351 37.3127H37.321V49.0077ZM39.7936 42.8746V39.3342H41.4611C42.8887 39.3342 43.5797 39.968 43.5797 41.133C43.5797 42.2922 42.8887 42.8746 41.4725 42.8746H39.7936Z" fill="#3F3F3F"/>
<path d="M49.4016 49.0077H57.3049V46.969H51.8742V44.1766H56.8766V42.138H51.8742V39.3513H57.282V37.3127H49.4016V49.0077Z" fill="#3F3F3F"/>
<path d="M67.1198 40.6761H69.4897C69.4554 38.5918 67.7423 37.1528 65.1383 37.1528C62.5743 37.1528 60.6956 38.569 60.707 40.6933C60.7013 42.4178 61.9176 43.4057 63.8934 43.8797L65.1668 44.1995C66.4403 44.5078 67.1484 44.8733 67.1541 45.6614C67.1484 46.5179 66.3375 47.1004 65.0812 47.1004C63.7963 47.1004 62.8712 46.5065 62.7913 45.3359H60.3986C60.4614 47.8656 62.2716 49.1733 65.1097 49.1733C67.965 49.1733 69.6438 47.8085 69.6496 45.6671C69.6438 43.7198 68.1763 42.6862 66.1433 42.2294L65.0926 41.9781C64.0761 41.744 63.2253 41.3671 63.2424 40.5277C63.2424 39.7739 63.9105 39.22 65.1212 39.22C66.3032 39.22 67.0285 39.7567 67.1198 40.6761Z" fill="#3F3F3F"/>
<path d="M72.395 39.3513H75.9754V49.0077H78.4195V39.3513H82V37.3127H72.395V39.3513Z" fill="#3F3F3F"/>
<path d="M9.02064 60.111H9.52479V58.654H10.9442V58.2216H9.52479V57.2035H11.0927V56.7696H9.02064V60.111Z" fill="#3F3F3F"/>
<path d="M13.8938 56.7696H13.3897V60.111H13.8938V56.7696Z" fill="#3F3F3F"/>
<path d="M19.002 56.7696H18.5027V59.2234H18.4717L16.7717 56.7696H16.305V60.111H16.8092V57.6604H16.8402L18.5386 60.111H19.002V56.7696Z" fill="#3F3F3F"/>
<path d="M21.6967 60.111L22.0034 59.2267H23.3086L23.6137 60.111H24.1489L22.9464 56.7696H22.364L21.1615 60.111H21.6967ZM22.1502 58.8025L22.643 57.3765H22.6691L23.1618 58.8025H22.1502Z" fill="#3F3F3F"/>
<path d="M29.0054 56.7696H28.5061V59.2234H28.4751L26.775 56.7696H26.3084V60.111H26.8126V57.6604H26.8436L28.542 60.111H29.0054V56.7696Z" fill="#3F3F3F"/>
<path d="M34.1931 57.8562C34.0789 57.1415 33.5192 56.7239 32.8128 56.7239C31.948 56.7239 31.3101 57.3716 31.3101 58.4403C31.3101 59.5089 31.9448 60.1567 32.8128 60.1567C33.547 60.1567 34.0838 59.6966 34.1931 59.0358L33.684 59.0342C33.5975 59.4616 33.2386 59.6966 32.816 59.6966C32.2434 59.6966 31.811 59.2577 31.811 58.4403C31.811 57.6294 32.2417 57.184 32.8177 57.184C33.2435 57.184 33.6008 57.4238 33.684 57.8562H34.1931Z" fill="#3F3F3F"/>
<path d="M36.9775 56.7696H36.4733V60.111H36.9775V56.7696Z" fill="#3F3F3F"/>
<path d="M39.6709 60.111L39.9776 59.2267H41.2829L41.588 60.111H42.1231L40.9207 56.7696H40.3382L39.1358 60.111H39.6709ZM40.1245 58.8025L40.6172 57.3765H40.6433L41.1361 58.8025H40.1245Z" fill="#3F3F3F"/>
<path d="M44.2827 60.111H46.3009V59.677H44.7868V56.7696H44.2827V60.111Z" fill="#3F3F3F"/>
<path d="M53.7073 57.8252H54.2245C54.1119 57.1742 53.5555 56.7239 52.8344 56.7239C51.9696 56.7239 51.3382 57.3749 51.3382 58.4419C51.3382 59.4992 51.9517 60.1567 52.8572 60.1567C53.6681 60.1567 54.2473 59.6248 54.2473 58.7813V58.4011H52.9339V58.8172H53.7595C53.748 59.3556 53.3924 59.6966 52.8572 59.6966C52.2682 59.6966 51.8391 59.2512 51.8391 58.4386C51.8391 57.6294 52.2715 57.184 52.8376 57.184C53.2814 57.184 53.5816 57.4287 53.7073 57.8252Z" fill="#3F3F3F"/>
<path d="M56.5643 60.111H57.0684V58.8465H57.7537C57.7651 58.8465 57.7749 58.8465 57.7863 58.8465L58.465 60.111H59.0393L58.2986 58.7584C58.7081 58.6067 58.9121 58.2657 58.9121 57.817C58.9121 57.2019 58.5303 56.7696 57.7553 56.7696H56.5643V60.111ZM57.0684 58.4125V57.2019H57.7015C58.1991 57.2019 58.4047 57.4385 58.4047 57.817C58.4047 58.1939 58.1991 58.4125 57.708 58.4125H57.0684Z" fill="#3F3F3F"/>
<path d="M64.1051 58.4403C64.1051 57.3716 63.4655 56.7239 62.6008 56.7239C61.7328 56.7239 61.0948 57.3716 61.0948 58.4403C61.0948 59.5073 61.7328 60.1567 62.6008 60.1567C63.4655 60.1567 64.1051 59.5089 64.1051 58.4403ZM63.6058 58.4403C63.6058 59.2544 63.1751 59.6966 62.6008 59.6966C62.0248 59.6966 61.5957 59.2544 61.5957 58.4403C61.5957 57.6261 62.0248 57.184 62.6008 57.184C63.1751 57.184 63.6058 57.6261 63.6058 58.4403Z" fill="#3F3F3F"/>
<path d="M68.5594 56.7696V58.9265C68.5594 59.38 68.2461 59.7064 67.7371 59.7064C67.2297 59.7064 66.9148 59.38 66.9148 58.9265V56.7696H66.4106V58.9673C66.4106 59.6688 66.936 60.1665 67.7371 60.1665C68.5382 60.1665 69.0652 59.6688 69.0652 58.9673V56.7696H68.5594Z" fill="#3F3F3F"/>
<path d="M71.4751 60.111H71.9793V58.9363H72.6645C73.4395 58.9363 73.8229 58.468 73.8229 57.8513C73.8229 57.2362 73.4428 56.7696 72.6662 56.7696H71.4751V60.111ZM71.9793 58.5088V57.2019H72.6123C73.1116 57.2019 73.3155 57.4728 73.3155 57.8513C73.3155 58.2298 73.1116 58.5088 72.6188 58.5088H71.9793Z" fill="#3F3F3F"/>
</svg>
