<svg width="32" height="32" viewBox="0 0 32 32" fill="none" xmlns="http://www.w3.org/2000/svg">
<circle cx="16" cy="16" r="15.5" stroke="#01D957"/>
<path d="M7.26303 16.2399L10.7116 17.5175L12.0559 21.8148C12.1144 22.1051 12.4651 22.1632 12.6989 21.989L14.6278 20.4211C14.8031 20.2468 15.0954 20.2468 15.3292 20.4211L18.7777 22.9181C19.0115 23.0924 19.3622 22.9762 19.4207 22.6859L21.9925 10.4908C22.0509 10.2004 21.7587 9.91008 21.4664 10.0262L7.26303 15.485C6.91232 15.6011 6.91232 16.1238 7.26303 16.2399ZM11.8806 16.8787L18.6608 12.7556C18.7777 12.6975 18.8946 12.8717 18.7777 12.9298L13.225 18.0982C13.0496 18.2724 12.8742 18.5047 12.8742 18.7951L12.6989 20.1888C12.6989 20.363 12.4066 20.4211 12.3482 20.1888L11.6468 17.6336C11.4714 17.3433 11.5884 16.9948 11.8806 16.8787Z" fill="#01D957"/>
</svg>
