<svg width="32" height="32" viewBox="0 0 32 32" fill="none" xmlns="http://www.w3.org/2000/svg">
<circle cx="16" cy="16" r="15.5" stroke="#01D957"/>
<path d="M22.8442 11.6999C20.4442 7.99988 15.5442 6.89988 11.7442 9.19988C8.04421 11.4999 6.84421 16.4999 9.24421 20.1999L9.44421 20.4999L8.64421 23.4999L11.6442 22.6999L11.9442 22.8999C13.2442 23.5999 14.6442 23.9999 16.0442 23.9999C17.5442 23.9999 19.0442 23.5999 20.3442 22.7999C24.0442 20.3999 25.1442 15.4999 22.8442 11.6999ZM20.7442 19.3999C20.3442 19.9999 19.8442 20.3999 19.1442 20.4999C18.7442 20.4999 18.2442 20.6999 16.2442 19.8999C14.5442 19.0999 13.1442 17.7999 12.1442 16.2999C11.5442 15.5999 11.2442 14.6999 11.1442 13.7999C11.1442 12.9999 11.4442 12.2999 11.9442 11.7999C12.1442 11.5999 12.3442 11.4999 12.5442 11.4999H13.0442C13.2442 11.4999 13.4442 11.4999 13.5442 11.8999C13.7442 12.3999 14.2442 13.5999 14.2442 13.6999C14.3442 13.7999 14.3442 13.9999 14.2442 14.0999C14.3442 14.2999 14.2442 14.4999 14.1442 14.5999C14.0442 14.6999 13.9442 14.8999 13.8442 14.9999C13.6442 15.0999 13.5442 15.2999 13.6442 15.4999C14.0442 16.0999 14.5442 16.6999 15.0442 17.1999C15.6442 17.6999 16.2442 18.0999 16.9442 18.3999C17.1442 18.4999 17.3442 18.4999 17.4442 18.2999C17.5442 18.0999 18.0442 17.5999 18.2442 17.3999C18.4442 17.1999 18.5442 17.1999 18.7442 17.2999L20.3442 18.0999C20.5442 18.1999 20.7442 18.2999 20.8442 18.3999C20.9442 18.6999 20.9442 19.0999 20.7442 19.3999Z" fill="#01D957"/>
</svg>
